<svg width="31" height="31" viewBox="0 0 31 31" fill="none" xmlns="http://www.w3.org/2000/svg">
<circle cx="15.5" cy="15.5" r="14.5" stroke="#535353" stroke-width="2"/>
<path d="M22.9992 19.1833V22.13C22.9993 22.341 22.9193 22.5441 22.7755 22.6985C22.6317 22.8528 22.4347 22.9469 22.2242 22.9617C21.8603 22.9872 21.5631 23 21.3326 23C13.9688 23 8 17.0308 8 9.66667C8 9.43667 8.01278 9.13944 8.03833 8.775C8.0531 8.56454 8.14714 8.36751 8.30149 8.22367C8.45583 8.07984 8.65898 7.9999 8.86995 8H11.8165C11.9198 7.9999 12.0195 8.03822 12.0962 8.10752C12.1729 8.17682 12.2211 8.27215 12.2314 8.375C12.2503 8.56611 12.2681 8.71944 12.2848 8.835C12.4504 9.99077 12.7897 11.1149 13.2914 12.1692C13.3705 12.3358 13.3189 12.535 13.1689 12.6417L11.3706 13.9267C12.4703 16.4886 14.5119 18.5302 17.0737 19.63L18.3569 17.835C18.4092 17.7614 18.4857 17.7086 18.573 17.6859C18.6604 17.6632 18.7529 17.672 18.8344 17.7108C19.8885 18.2116 21.0123 18.5501 22.1675 18.715C22.2831 18.7317 22.4359 18.7494 22.6259 18.7683C22.7285 18.7789 22.8237 18.8271 22.8928 18.9038C22.9619 18.9805 22.9993 19.0801 22.9992 19.1833Z" fill="#62DC7C"/>
</svg>
