<svg width="29" height="29" viewBox="0 0 29 29" fill="none" xmlns="http://www.w3.org/2000/svg">
<path d="M11 20.6667C10.6333 20.6667 10.3196 20.5362 10.0587 20.2754C9.79778 20.0145 9.66712 19.7005 9.66667 19.3334V12.6667C9.66667 12.3 9.79734 11.9862 10.0587 11.7254C10.32 11.4645 10.6338 11.3338 11 11.3334H11.6667V10C11.6667 9.0778 11.9918 8.2918 12.642 7.64202C13.2922 6.99224 14.0782 6.66713 15 6.66669C15.9218 6.66624 16.708 6.99135 17.3587 7.64202C18.0093 8.29269 18.3342 9.07869 18.3333 10V11.3334H19C19.3667 11.3334 19.6807 11.464 19.942 11.7254C20.2033 11.9867 20.3338 12.3005 20.3333 12.6667V19.3334C20.3333 19.7 20.2029 20.014 19.942 20.2754C19.6811 20.5367 19.3671 20.6671 19 20.6667H11ZM15 17.3334C15.3667 17.3334 15.6807 17.2029 15.942 16.942C16.2033 16.6811 16.3338 16.3671 16.3333 16C16.3329 15.6329 16.2024 15.3191 15.942 15.0587C15.6816 14.7982 15.3676 14.6676 15 14.6667C14.6324 14.6658 14.3187 14.7965 14.0587 15.0587C13.7987 15.3209 13.668 15.6347 13.6667 16C13.6653 16.3654 13.796 16.6794 14.0587 16.942C14.3213 17.2047 14.6351 17.3351 15 17.3334ZM13 11.3334H17V10C17 9.44446 16.8056 8.97224 16.4167 8.58335C16.0278 8.19447 15.5556 8.00002 15 8.00002C14.4444 8.00002 13.9722 8.19447 13.5833 8.58335C13.1944 8.97224 13 9.44446 13 10V11.3334Z" fill="#62DC7C"/>
<path d="M1.46965 5.00218L5.11165 7.83876L0.834099 9.57454L1.46965 5.00218Z" fill="#535353"/>
<path d="M2.54428 6.29569C4.52747 3.40568 7.49037 1.33184 10.8847 0.457933C14.279 -0.415979 17.875 -0.0308066 21.0073 1.54218C24.1395 3.11516 26.596 5.76947 27.9221 9.01395C29.2482 12.2584 29.3543 15.8734 28.2205 19.1901C27.0868 22.5067 24.7901 25.3004 21.7555 27.0542C18.7208 28.808 15.1535 29.4033 11.7138 28.7298C8.27411 28.0563 5.19477 26.1597 3.04562 23.3908C0.896466 20.622 -0.177012 17.1684 0.0238224 13.6692L1.6111 13.7603C1.43228 16.8759 2.38806 19.9508 4.30156 22.416C6.21506 24.8812 8.95676 26.5699 12.0193 27.1695C15.0819 27.7692 18.258 27.2392 20.9599 25.6777C23.6619 24.1161 25.7067 21.6288 26.7161 18.6758C27.7255 15.7228 27.6311 12.5042 26.4504 9.61548C25.2697 6.72675 23.0826 4.36348 20.2938 2.96297C17.505 1.56246 14.3033 1.21952 11.2811 1.99761C8.25896 2.7757 5.62093 4.62214 3.85519 7.19527L2.54428 6.29569Z" fill="#535353"/>
</svg>
