<svg width="31" height="31" viewBox="0 0 31 31" fill="none" xmlns="http://www.w3.org/2000/svg">
<circle cx="15.5" cy="15.5" r="14.5" stroke="#535353" stroke-width="2"/>
<path d="M15.162 19.936C15.162 19.124 14.838 18.346 14.26 17.771C13.681 17.1952 12.8976 16.8719 12.081 16.8719C11.2644 16.8719 10.481 17.1952 9.902 17.771C9.61622 18.0545 9.38939 18.3918 9.23458 18.7633C9.07977 19.1349 9.00004 19.5335 9 19.936M18.097 12.887H21.691M18.097 15.968H19.637M18.097 19.049H21.691M12.081 16.108C12.6258 16.108 13.1482 15.8916 13.5334 15.5064C13.9186 15.1212 14.135 14.5988 14.135 14.054C14.135 13.5092 13.9186 12.9868 13.5334 12.6016C13.1482 12.2164 12.6258 12 12.081 12C11.5362 12 11.0138 12.2164 10.6286 12.6016C10.2434 12.9868 10.027 13.5092 10.027 14.054C10.027 14.5988 10.2434 15.1212 10.6286 15.5064C11.0138 15.8916 11.5362 16.108 12.081 16.108Z" stroke="#62DC7C" stroke-width="1.5" stroke-linecap="round" stroke-linejoin="round"/>
</svg>
