<svg width="29" height="29" viewBox="0 0 29 29" fill="none" xmlns="http://www.w3.org/2000/svg">
<path d="M19.9375 12.6875C19.9375 15.6962 17.5087 18.125 14.5 18.125C11.4913 18.125 9.0625 15.6962 9.0625 12.6875C9.0625 9.67875 11.4913 7.25 14.5 7.25C17.5087 7.25 19.9375 9.67875 19.9375 12.6875Z" fill="#62DC7C"/>
<path fill-rule="evenodd" clip-rule="evenodd" d="M29 14.5C29 22.5112 22.5112 29 14.5 29C6.48875 29 0 22.5112 0 14.5C0 6.48875 6.48875 0 14.5 0C22.5112 0 29 6.48875 29 14.5ZM7.25 24.9219C7.54 24.4398 10.3494 19.9375 14.4819 19.9375C18.5962 19.9375 21.4237 24.4506 21.7137 24.9219C23.3991 23.7564 24.7762 22.199 25.7265 20.3836C26.6769 18.5682 27.172 16.5491 27.1694 14.5C27.1694 7.48563 21.4963 1.8125 14.4819 1.8125C7.4675 1.8125 1.79438 7.48563 1.79438 14.5C1.79438 18.8137 3.95125 22.6381 7.25 24.9219Z" fill="#535353"/>
</svg>
