<svg width="198" height="74" viewBox="0 0 198 74" fill="none" xmlns="http://www.w3.org/2000/svg">
<path fill-rule="evenodd" clip-rule="evenodd" d="M0.437322 0.991037C14.6467 17.1146 36.5807 34.0612 58.8048 46.8391C59.4852 48.6219 60.313 50.3724 61.2739 52.0711C68.4061 64.6793 82.9698 74.5959 99.5654 73.8055C124.86 72.601 142.834 61.8513 157.487 49.3161C163.875 43.8516 169.642 38.038 175.1 32.5366L175.109 32.5266C175.9 31.7298 176.684 30.9396 177.462 30.158C183.446 24.149 189.094 18.6546 194.889 14.4979L196.046 20.1137L197.025 19.912L195.569 12.8405L195.486 12.436L195.073 12.4414L188.18 12.5306L188.193 13.5305L193.766 13.4584C187.943 17.6758 182.292 23.1824 176.399 29.0996C175.615 29.8874 174.826 30.6827 174.031 31.4836C168.57 36.9879 162.849 42.7548 156.512 48.1762C142.013 60.5799 124.345 71.1238 99.494 72.3072C83.5444 73.0668 69.4748 63.5221 62.5795 51.3325C61.9694 50.254 61.4163 49.1561 60.9234 48.0441C64.7522 50.1979 68.5825 52.2234 72.3765 54.0951C84.9727 60.3092 100.334 59.3573 111.069 50.1707C120.224 42.3352 123.851 35.1383 122.611 27.5992C120.769 16.4042 111.335 9.57963 100.34 7.23182C89.3452 4.88396 76.5664 6.94789 67.6856 13.7416C61.0601 18.8101 57.6457 25.231 56.8074 31.9895C56.2867 36.1871 56.7616 40.4949 58.0557 44.6716C36.4665 32.0688 15.3284 15.6194 1.56268 -0.000717163L0.437322 0.991037ZM73.0401 52.7499C68.7282 50.6226 64.3696 48.2958 60.0208 45.8074C58.385 41.3177 57.7394 36.6613 58.296 32.1742C59.0836 25.8247 62.2833 19.7629 68.597 14.933C77.071 8.45046 89.3831 6.42588 100.027 8.69875C110.671 10.9717 119.425 17.4771 121.131 27.8428C122.246 34.6201 119.084 41.3369 110.093 49.0311C99.8764 57.7748 85.1746 58.7362 73.0401 52.7499Z" fill="#D4AF37"/>
</svg>
