<svg width="518" height="345" viewBox="0 0 518 345" fill="none" xmlns="http://www.w3.org/2000/svg">
<path d="M84.8719 180.711C85.2304 171.901 85.0867 163.074 84.5086 154.276C83.3165 136.131 80.3259 118.125 76.2199 100.42C73.9083 90.4535 71.062 80.6555 68.0963 70.8685C68.0065 70.5725 67.5348 70.656 67.6163 70.9644C76.7883 105.466 84.3132 141.073 83.7945 176.937C83.6494 186.975 82.4863 196.834 81.5325 206.807C81.507 207.075 81.9462 207.18 82.007 206.907C83.9008 198.371 84.5169 189.428 84.8719 180.711Z" fill="#EBEBEB"/>
<path d="M67.6163 70.9637C67.6163 70.9637 53.7221 106.197 56.8329 114.478C59.9437 122.759 66.3565 124.526 66.3565 124.526C66.3565 124.526 57.8551 136.651 63.7962 148.024C69.7366 159.396 82.936 158.859 83.8131 171.753C83.8131 171.753 84.5487 117.837 67.6163 70.9637Z" fill="#EBEBEB"/>
<path d="M82.3026 149.491C82.3192 149.431 82.3157 149.369 82.2881 149.306C80.337 125.35 76.0824 101.467 68.8111 78.4295C68.7897 78.3612 68.6778 78.3833 68.6965 78.4537C71.4495 88.7595 73.8986 99.1219 75.992 109.54C74.188 107.684 71.8273 106.617 69.3595 105.845C69.3132 105.831 69.2904 105.897 69.3346 105.916C71.9039 107.026 74.3661 108.313 76.1826 110.488C76.5887 112.529 76.9858 114.572 77.3629 116.618C74.2584 113.152 69.9521 111.431 65.643 109.796C65.5822 109.773 65.5498 109.867 65.6092 109.891C70.0971 111.716 74.5664 114.067 77.6067 117.931C78.6669 123.778 79.5945 129.645 80.397 135.53C78.1275 133.161 75.3262 131.569 72.1118 130.787C72.0158 130.763 71.9612 130.906 72.0593 130.934C75.3614 131.885 78.2007 133.731 80.462 136.312C80.4779 136.33 80.4958 136.338 80.5138 136.351C80.7921 138.422 81.0546 140.494 81.2997 142.57C79.5517 141.08 77.6199 139.947 75.4926 139.07C75.4367 139.047 75.4056 139.135 75.4609 139.159C77.6213 140.078 79.5662 141.402 81.277 143.005C81.3011 143.027 81.326 143.025 81.3509 143.034C81.5822 145.007 81.8129 146.98 82.0125 148.958C78.8272 145.123 74.8883 142.348 70.2284 140.552C70.1372 140.516 70.0902 140.655 70.1779 140.693C74.7087 142.662 78.7028 145.78 81.7915 149.621C81.8765 149.727 81.9863 149.744 82.0843 149.713C82.3848 152.745 82.6535 155.781 82.8765 158.824C82.8793 158.865 82.9477 158.869 82.9456 158.827C82.7722 155.715 82.5547 152.602 82.3026 149.491Z" fill="white"/>
<path d="M71.1394 102.344C68.7297 100.69 65.6679 99.9838 62.792 99.7443C62.7229 99.7388 62.7174 99.8402 62.7844 99.8506C65.7764 100.294 68.2897 101.376 71.0386 102.544C71.1574 102.594 71.2423 102.415 71.1394 102.344Z" fill="white"/>
<path d="M72.826 139.646C70.9198 138.502 68.7442 137.856 66.5596 137.505C66.4836 137.492 66.4767 137.61 66.5513 137.623C68.7697 138.024 70.734 138.814 72.75 139.795C72.8357 139.837 72.9075 139.695 72.826 139.646Z" fill="white"/>
<path d="M121.398 115.053C115.603 119.122 110.043 123.816 105.316 129.097C100.279 134.725 96.6036 141.115 94.0377 148.205C88.7804 162.732 85.8989 178.468 85.6358 193.906C85.4887 202.561 86.2588 211.148 88.1125 219.607C88.1802 219.915 88.6409 219.828 88.5932 219.517C86.3278 204.634 86.4107 189.446 88.8453 174.591C91.2343 160.016 94.9819 144.159 104.256 132.314C109.306 125.864 115.602 120.79 121.826 115.546C122.153 115.269 121.735 114.816 121.398 115.053Z" fill="#EBEBEB"/>
<path d="M87.6808 183.411C87.6808 183.411 92.4527 175.383 99.4035 168.441C106.354 161.499 112.208 156.564 113.112 151.973C114.015 147.382 106.149 144 106.149 144C106.149 144 115.768 145.725 118.4 141.693C121.031 137.661 122.302 114.302 122.302 114.302C122.302 114.302 104.803 126.783 96.6498 144.279C88.4965 161.775 87.6808 183.411 87.6808 183.411Z" fill="#EBEBEB"/>
<path d="M116.248 120.29C108.885 127.514 101.475 135.213 97.1389 144.705C95.6525 147.959 94.3872 151.334 93.2739 154.772C93.2704 154.777 93.2711 154.782 93.2684 154.788C93.0453 155.478 92.818 156.166 92.6074 156.862C92.586 156.896 92.5749 156.935 92.5722 156.975C90.4283 164.063 88.9137 171.394 87.6014 178.555C87.5925 178.602 87.6629 178.626 87.6733 178.578C88.4275 174.933 89.2583 171.253 90.188 167.584C90.2211 167.585 90.2564 167.579 90.2923 167.564C91.7807 166.939 93.2773 166.547 94.8845 166.399C94.9888 166.389 94.9805 166.208 94.8749 166.213C93.3243 166.287 91.8062 166.559 90.333 167.041C91.1805 163.732 92.1018 160.433 93.1378 157.181C96.5159 156.355 100.042 155.909 103.516 155.825C103.552 155.825 103.558 155.771 103.521 155.769C100.019 155.606 96.7279 155.908 93.3167 156.634C93.497 156.076 93.6855 155.521 93.8713 154.966C96.1526 154.446 98.4435 154.01 100.778 153.797C100.82 153.793 100.817 153.722 100.774 153.722C98.4884 153.784 96.2362 154.024 94.0115 154.543C94.9633 151.73 95.9923 148.954 97.134 146.251C98.0782 144.015 99.2012 141.892 100.437 139.842C102.308 139.419 104.122 139.016 106.039 138.845C106.093 138.84 106.086 138.755 106.035 138.751C104.294 138.638 102.481 138.769 100.797 139.268C101.718 137.783 102.685 136.328 103.72 134.919C107.644 134.051 111.621 133.245 115.636 133.998C115.705 134.011 115.73 133.894 115.662 133.877C111.84 132.873 108.048 133.452 104.245 134.204C104.66 133.652 105.084 133.107 105.513 132.566C107.922 131.821 110.318 131.462 112.845 131.415C112.897 131.415 112.905 131.339 112.852 131.335C110.546 131.114 108.245 131.338 106.016 131.94C109.261 127.914 112.843 124.132 116.386 120.391C116.55 120.22 116.422 120.119 116.248 120.29Z" fill="white"/>
<path d="M116.051 136.212C114.9 136.089 113.728 135.961 112.571 136.091C112.431 136.107 112.443 136.335 112.584 136.339C113.736 136.372 114.887 136.287 116.04 136.35C116.129 136.354 116.14 136.222 116.051 136.212Z" fill="white"/>
<path d="M103.457 158.872C101.619 158.849 99.7813 159.344 98.0637 159.954C98.0201 159.969 98.045 160.041 98.0892 160.03C99.8704 159.607 101.672 159.435 103.471 159.138C103.617 159.114 103.611 158.873 103.457 158.872Z" fill="white"/>
<path d="M99.6819 151.044C98.936 151.004 98.1279 151.136 97.3923 151.25C97.317 151.262 97.3205 151.385 97.3992 151.387C98.1431 151.4 98.9608 151.42 99.6936 151.279C99.8242 151.254 99.8179 151.051 99.6819 151.044Z" fill="white"/>
<path d="M36.3836 139.841C42.0146 141.796 47.6008 144.311 52.6475 147.493C58.0264 150.884 62.4784 155.207 66.1956 160.353C73.8109 170.894 79.7838 182.964 83.5686 195.397C85.6903 202.367 87.053 209.494 87.5102 216.768C87.5268 217.033 87.1338 217.069 87.1 216.806C85.49 204.239 81.9096 191.967 76.5024 180.507C71.1974 169.263 64.4952 157.296 54.2498 149.851C48.6706 145.797 42.4014 143.144 36.1509 140.337C35.8228 140.191 36.0563 139.727 36.3836 139.841Z" fill="#EBEBEB"/>
<path d="M79.4861 187.376C79.4861 187.376 73.7667 181.981 66.5361 177.968C59.3048 173.955 53.4259 171.314 51.6322 167.807C49.8385 164.299 55.4226 159.747 55.4226 159.747C55.4226 159.747 48.0373 163.364 44.9742 160.708C41.9117 158.052 35.4789 139.442 35.4789 139.442C35.4789 139.442 52.528 145.502 63.1739 157.779C73.8199 170.055 79.4861 187.376 79.4861 187.376Z" fill="#EBEBEB"/>
<path d="M78.5979 183.538C70.0709 167.548 58.6929 153.083 43.1018 143.535C43.0948 143.531 43.0879 143.541 43.0942 143.546C47.1988 146.158 50.9809 149.172 54.5054 152.467C51.3497 152.379 48.1367 152.881 45.3388 154.4C45.2767 154.433 45.3216 154.517 45.3851 154.496C48.5035 153.442 51.4996 152.75 54.8168 152.903C54.8624 152.905 54.8914 152.882 54.9239 152.863C55.4771 153.388 56.0234 153.92 56.5635 154.458C54.9225 154.528 53.2635 154.76 51.6653 155.107C51.6218 155.117 51.6349 155.183 51.6785 155.175C53.4086 154.841 55.0966 154.724 56.8522 154.748C59.7095 157.616 62.3707 160.684 64.8937 163.87C63.7548 163.705 62.5606 163.8 61.4687 164.119C61.3878 164.142 61.4086 164.259 61.4935 164.248C62.736 164.091 63.9164 164.111 65.1492 164.197C65.6161 164.791 66.0878 165.381 66.5451 165.982C63.0385 165.771 59.6045 166.108 56.1975 166.987C56.1471 167 56.1609 167.077 56.2127 167.067C59.7268 166.378 63.2699 166.158 66.8407 166.377C67.2758 166.953 67.6874 167.546 68.1136 168.129C66.0215 168.065 63.9937 168.326 61.9542 168.833C61.8762 168.853 61.8989 168.974 61.9784 168.956C64.0766 168.479 66.2094 168.358 68.3546 168.46C70.189 170.985 71.9461 173.565 73.6347 176.178C72.7403 175.994 71.8017 176.095 70.9315 176.341C70.8852 176.354 70.8976 176.421 70.946 176.415C71.9495 176.298 72.8861 176.427 73.8716 176.553C75.3904 178.915 76.8581 181.3 78.265 183.699C78.3838 183.902 78.7112 183.75 78.5979 183.538Z" fill="white"/>
<path d="M65.3336 170.275C63.6663 170.132 61.9728 170.393 60.3801 170.88C60.3353 170.894 60.3456 170.963 60.3947 170.954C62.0336 170.652 63.6587 170.538 65.3205 170.449C65.4296 170.444 65.4503 170.284 65.3336 170.275Z" fill="white"/>
<path d="M50.4622 150.788C49.7087 150.702 48.922 150.8 48.1775 150.92C48.0891 150.935 48.1167 151.065 48.2037 151.055C48.9545 150.975 49.6956 151.004 50.447 150.981C50.57 150.978 50.5886 150.803 50.4622 150.788Z" fill="white"/>
<path d="M101.476 240.252H62.9916L68.4789 200.094L69.881 189.798H94.5861L95.9889 200.094L101.476 240.252Z" fill="#DBDBDB"/>
<path d="M95.9889 200.094H68.4789L69.881 189.798H94.5861L95.9889 200.094Z" fill="#C7C7C7"/>
<path d="M98.1189 186.225H66.3482V194.946H98.1189V186.225Z" fill="#DBDBDB"/>
<path d="M394.311 57.032C392.465 61.7143 391.424 66.5533 391.127 71.564C391.056 71.5668 390.999 71.5723 390.942 71.5723C386.762 71.573 382.581 71.573 378.402 71.5723C378.348 71.5723 378.295 71.5661 378.242 71.5633V71.2059C378.277 70.8768 378.315 70.5484 378.346 70.2185C378.503 68.5053 378.795 66.8175 379.198 65.1464C379.861 62.3974 380.828 59.7602 382.062 57.2169C382.132 57.0699 382.215 57.0285 382.371 57.0285C386.278 57.0326 390.183 57.032 394.09 57.032H394.311Z" fill="#EBEBEB"/>
<path d="M393.921 89.4965H393.715C389.838 89.4965 385.961 89.4958 382.084 89.5006C381.93 89.5006 381.861 89.4516 381.794 89.3143C380.421 86.4625 379.451 83.4783 378.857 80.3719C378.57 78.8767 378.371 77.367 378.275 75.8455C378.271 75.7958 378.253 75.7441 378.242 75.6909V75.3363C378.306 75.3308 378.37 75.3211 378.436 75.3211C382.591 75.3211 386.749 75.3211 390.904 75.3211C391.134 75.3211 391.123 75.3218 391.139 75.5529C391.218 76.5866 391.286 77.6216 391.386 78.6524C391.544 80.2932 391.823 81.9154 392.177 83.5224C392.607 85.4903 393.168 87.4203 393.862 89.3109C393.882 89.3647 393.897 89.4213 393.921 89.4965Z" fill="#EBEBEB"/>
<path d="M443.709 93.2432C443.667 93.3149 443.638 93.368 443.606 93.4191C442.62 94.9695 441.462 96.3875 440.25 97.7647C438.772 99.4483 437.12 100.941 435.336 102.291C433.576 103.621 431.71 104.779 429.734 105.758C427.831 106.703 425.858 107.472 423.815 108.059C422.197 108.525 420.553 108.869 418.885 109.108C418.724 109.131 418.561 109.163 418.4 109.19H418.115C418.032 109.136 417.949 109.083 417.84 109.015C417.957 108.932 418.054 108.86 418.155 108.793C421.784 106.31 424.902 103.304 427.49 99.7478C428.945 97.7495 430.216 95.6409 431.303 93.4232C431.368 93.2866 431.444 93.2397 431.597 93.2404C435.563 93.2438 439.529 93.2432 443.495 93.2432H443.709Z" fill="#EBEBEB"/>
<path d="M431.864 71.5551H415.236V57.0396C415.303 57.0368 415.366 57.032 415.428 57.032C419.691 57.032 423.955 57.0327 428.218 57.0285C428.361 57.0278 428.424 57.0727 428.48 57.2003C429.679 59.9362 430.556 62.7741 431.125 65.7066C431.419 67.2308 431.64 68.7654 431.765 70.3124C431.796 70.7209 431.83 71.1287 431.864 71.5551Z" fill="#EBEBEB"/>
<path d="M431.765 75.4287C431.749 75.7723 431.745 76.1139 431.716 76.4534C431.643 77.2621 431.586 78.0721 431.473 78.876C431.315 79.9883 431.146 81.1012 430.924 82.2031C430.434 84.6326 429.7 86.9911 428.768 89.2881C428.707 89.4412 428.637 89.502 428.463 89.502C424.099 89.4951 419.735 89.4958 415.371 89.4958H415.136V75.428L431.765 75.4287Z" fill="#EBEBEB"/>
<path d="M411.487 57.1251V71.6627H395.249C395.273 71.2936 395.283 70.9334 395.321 70.5746C395.404 69.7624 395.47 68.9441 395.599 68.1382C395.798 66.9065 396.01 65.6749 396.274 64.4543C396.807 61.991 397.611 59.6105 398.62 57.2997C398.68 57.1617 398.754 57.1216 398.897 57.1216C403.024 57.1258 407.151 57.1251 411.278 57.1251H411.487Z" fill="#EBEBEB"/>
<path d="M411.504 75.6213C411.5 80.178 411.501 84.7348 411.501 89.2902V89.4965H411.283C407.03 89.4965 402.778 89.4958 398.526 89.5006C398.372 89.5006 398.303 89.4523 398.242 89.3095C397.26 86.9407 396.504 84.5002 396.031 81.9837C395.788 80.6928 395.601 79.3887 395.438 78.0859C395.331 77.2352 395.307 76.3727 395.249 75.515C395.246 75.4929 395.251 75.4688 395.255 75.4239C395.318 75.4205 395.38 75.4156 395.443 75.4156C400.73 75.4156 406.014 75.4163 411.299 75.4115C411.467 75.4115 411.504 75.4605 411.504 75.6213Z" fill="#EBEBEB"/>
<path d="M449.498 71.6586H435.872C435.575 66.6271 434.55 61.7557 432.696 57.032H432.909C437.07 57.032 441.233 57.0326 445.396 57.0285C445.547 57.0285 445.624 57.0692 445.693 57.2058C447.152 60.0976 448.198 63.1316 448.835 66.3069C449.172 67.994 449.384 69.6955 449.497 71.4102C449.502 71.4888 449.498 71.5654 449.498 71.6586Z" fill="#EBEBEB"/>
<path d="M449.509 75.3204C449.494 75.6489 449.486 75.9614 449.463 76.2712C449.374 77.5022 449.229 78.7242 449.015 79.9379C448.514 82.7648 447.667 85.4855 446.511 88.1116C446.326 88.5339 446.124 88.95 445.935 89.3702C445.892 89.4654 445.838 89.4992 445.733 89.4992C441.56 89.4958 437.386 89.4958 433.213 89.4958C433.173 89.4958 433.134 89.4902 433.078 89.4868C433.23 89.0507 433.38 88.6278 433.526 88.2048C434.264 86.0396 434.82 83.826 435.213 81.5746C435.498 79.9393 435.701 78.2929 435.796 76.6369C435.82 76.2471 435.845 75.8552 435.863 75.4653C435.866 75.3611 435.896 75.3094 436.005 75.3197C436.048 75.3245 436.09 75.3204 436.131 75.3204H449.509Z" fill="#EBEBEB"/>
<path d="M443.334 53.326C443.326 53.3446 443.317 53.3625 443.308 53.3819H443.135C439.161 53.3819 435.189 53.3812 431.217 53.3839C431.076 53.3839 430.998 53.348 430.93 53.2156C429.325 50.0492 427.376 47.1118 425.014 44.4588C423.639 42.9159 422.11 41.538 420.474 40.2781C419.662 39.6529 418.818 39.0678 417.989 38.4661C417.946 38.4358 417.905 38.4033 417.851 38.3626C417.911 38.3205 417.958 38.2888 418.016 38.2495C417.992 38.1743 417.97 38.097 417.937 37.9928C422.18 38.4861 426.201 39.6674 429.986 41.6063C435.423 44.3884 439.933 48.2345 443.334 53.326Z" fill="#EBEBEB"/>
<path d="M409.179 109.026C409.031 109.052 408.929 109.093 408.833 109.081C407.522 108.913 406.228 108.652 404.948 108.327C402.552 107.717 400.244 106.865 398.031 105.767C395.497 104.508 393.148 102.967 390.982 101.145C389.45 99.8548 388.024 98.4554 386.743 96.9119C385.782 95.7499 384.905 94.5266 384.099 93.2521C384.082 93.2225 384.069 93.1921 384.043 93.139H384.239C387.939 93.139 391.636 93.1397 395.336 93.1342C395.485 93.1342 395.552 93.1873 395.616 93.3136C396.78 95.6478 398.125 97.8703 399.694 99.9555C401.129 101.86 402.738 103.609 404.475 105.243C405.912 106.596 407.441 107.833 409.076 108.939C409.095 108.952 409.112 108.97 409.179 109.026Z" fill="#EBEBEB"/>
<path d="M409.031 38.3467C408.525 38.7166 407.927 39.1368 407.35 39.5798C405.398 41.0743 403.632 42.7676 401.974 44.5802C399.743 47.0173 397.859 49.6938 396.331 52.6215C396.236 52.8064 396.15 52.9961 396.044 53.1728C396.013 53.2266 395.932 53.2763 395.871 53.2804C395.67 53.2928 395.468 53.2846 395.264 53.2846H384.416C390.46 44.7596 398.577 39.6343 408.904 38.0687C408.882 38.1156 408.858 38.1611 408.835 38.2087C408.907 38.257 408.979 38.3088 409.031 38.3467Z" fill="#EBEBEB"/>
<path d="M426.903 93.2542C425.357 95.9617 423.53 98.4292 421.411 100.677C419.524 102.677 417.467 104.476 415.138 105.994V93.2542H426.903Z" fill="#EBEBEB"/>
<path d="M411.483 93.2577V105.751C406.705 102.464 402.985 98.2954 400.197 93.2577H411.483Z" fill="#EBEBEB"/>
<path d="M426.532 53.2728H415.238V41.369C417.569 42.8945 419.684 44.6499 421.575 46.6702C423.461 48.6857 425.088 50.8951 426.532 53.2728Z" fill="#EBEBEB"/>
<path d="M411.486 41.7402V53.3708H400.646C403.392 48.6761 406.911 44.7424 411.486 41.7402Z" fill="#EBEBEB"/>
<path d="M195.971 40.0221H101.746V101.066H195.971V40.0221Z" stroke="#EBEBEB" stroke-miterlimit="10"/>
<path d="M195.971 40.0221H101.746V48.1337H195.971V40.0221Z" stroke="#EBEBEB" stroke-miterlimit="10"/>
<path d="M109.364 44.1358C109.364 45.2626 108.45 46.1762 107.322 46.1762C106.194 46.1762 105.28 45.2626 105.28 44.1358C105.28 43.0084 106.194 42.0948 107.322 42.0948C108.45 42.0955 109.364 43.0091 109.364 44.1358Z" fill="#C7C7C7"/>
<path d="M117.706 44.1358C117.706 45.2626 116.791 46.1762 115.663 46.1762C114.535 46.1762 113.621 45.2626 113.621 44.1358C113.621 43.0084 114.535 42.0948 115.663 42.0948C116.791 42.0955 117.706 43.0091 117.706 44.1358Z" fill="#EBEBEB"/>
<path d="M126.046 44.1358C126.046 45.2626 125.132 46.1762 124.003 46.1762C122.875 46.1762 121.961 45.2626 121.961 44.1358C121.961 43.0084 122.875 42.0948 124.003 42.0948C125.132 42.0955 126.046 43.0091 126.046 44.1358Z" fill="#FFC727"/>
<path d="M259 306.265C384.406 306.265 486.068 293.5 486.068 277.753C486.068 262.005 384.406 249.24 259 249.24C133.594 249.24 31.9323 262.005 31.9323 277.753C31.9323 293.5 133.594 306.265 259 306.265Z" fill="#EBEBEB"/>
<path d="M35.0306 240.252L91.023 240.084L147.015 240.023L259 239.907L370.985 240.022L426.977 240.083L482.969 240.252L426.977 240.421L370.985 240.481L259 240.596L147.015 240.48L91.023 240.419L35.0306 240.252Z" fill="#263238"/>
<path d="M392.797 70.6843H124.688V249.856H392.797V70.6843Z" fill="#DBDBDB"/>
<path d="M390.848 72.8702H126.637V247.671H390.848V72.8702Z" fill="#263238"/>
<path d="M427.717 263.292H89.7687V275.589H427.717V263.292Z" fill="#C7C7C7"/>
<path d="M89.7687 263.292L124.688 249.857H392.797L427.717 263.292H89.7687Z" fill="#DBDBDB"/>
<path d="M127.807 258.526L150.341 249.857H367.144L389.678 258.526H127.807Z" fill="#263238"/>
<path d="M375.917 86.1506H141.568V234.39H375.917V86.1506Z" fill="white"/>
<path d="M375.917 86.1506H141.37V91.8549H375.917V86.1506Z" fill="#455A64"/>
<path d="M145.908 89.0031C145.908 89.7842 145.274 90.4176 144.492 90.4176C143.71 90.4176 143.076 89.7842 143.076 89.0031C143.076 88.222 143.71 87.5886 144.492 87.5886C145.274 87.5879 145.908 88.2213 145.908 89.0031Z" fill="#C7C7C7"/>
<path d="M151.69 89.0031C151.69 89.7842 151.056 90.4176 150.275 90.4176C149.493 90.4176 148.859 89.7842 148.859 89.0031C148.859 88.222 149.493 87.5886 150.275 87.5886C151.056 87.5879 151.69 88.2213 151.69 89.0031Z" fill="white"/>
<path d="M157.473 89.0031C157.473 89.7842 156.839 90.4176 156.057 90.4176C155.275 90.4176 154.641 89.7842 154.641 89.0031C154.641 88.222 155.275 87.5886 156.057 87.5886C156.839 87.5879 157.473 88.2213 157.473 89.0031Z" fill="#FFC727"/>
<path d="M152.824 167.61H243.96V103.85L152.824 103.85V167.61Z" fill="#EBEBEB"/>
<path d="M163.474 121.974C163.474 126.14 166.854 129.517 171.024 129.517C175.194 129.517 178.575 126.14 178.575 121.974C178.575 117.808 175.194 114.431 171.024 114.431C166.855 114.431 163.474 117.808 163.474 121.974Z" fill="#DBDBDB"/>
<path d="M193.279 153.872H243.961L218.619 119.557L193.279 153.872Z" fill="#C7C7C7"/>
<path d="M173.424 153.903H215.268L194.346 131.557L173.424 153.903Z" fill="#DBDBDB"/>
<path d="M243.961 153.872H152.824V167.609H243.961V153.872Z" fill="#DBDBDB"/>
<path d="M256.926 222.176H307.849V176.145H256.926V222.176Z" fill="#EBEBEB"/>
<path d="M263.501 186.211C262.773 190.047 266.077 193.349 269.918 192.622C272.064 192.215 273.794 190.487 274.2 188.343C274.928 184.507 271.624 181.206 267.783 181.933C265.638 182.339 263.908 184.068 263.501 186.211Z" fill="#DBDBDB"/>
<path d="M271.259 212.258H307.849L289.554 187.485L271.259 212.258Z" fill="#C7C7C7"/>
<path d="M256.925 212.281H287.134L272.029 196.148L256.925 212.281Z" fill="#DBDBDB"/>
<path d="M307.849 212.258H256.925V222.176H307.849V212.258Z" fill="#DBDBDB"/>
<path d="M338.613 103.849H256.925V107.966H338.613V103.849Z" fill="#A6A6A6"/>
<path d="M356.373 112.373H256.925V116.489H356.373V112.373Z" fill="#DBDBDB"/>
<path d="M356.373 120.896H256.925V125.013H356.373V120.896Z" fill="#DBDBDB"/>
<path d="M356.373 129.421H256.925V133.537H356.373V129.421Z" fill="#DBDBDB"/>
<path d="M356.373 137.944H256.925V142.061H356.373V137.944Z" fill="#DBDBDB"/>
<path d="M322.943 146.468H256.925V150.584H322.943V146.468Z" fill="#DBDBDB"/>
<path d="M348.518 176.145H312.389V180.199H348.518V176.145Z" fill="#A6A6A6"/>
<path d="M356.373 184.54H312.389V188.594H356.373V184.54Z" fill="#DBDBDB"/>
<path d="M356.373 192.936H312.389V196.99H356.373V192.936Z" fill="#DBDBDB"/>
<path d="M356.373 201.331H312.389V205.385H356.373V201.331Z" fill="#DBDBDB"/>
<path d="M356.373 209.726H312.389V213.781H356.373V209.726Z" fill="#DBDBDB"/>
<path d="M342.236 218.122H312.389V222.177H342.236V218.122Z" fill="#DBDBDB"/>
<path d="M356.373 155.505H256.925V167.61H356.373V155.505Z" fill="#FFC727"/>
<path d="M243.961 176.145H152.824V188.249H243.961V176.145Z" fill="#A6A6A6"/>
<path d="M243.961 192.656H152.824V196.749H243.961V192.656Z" fill="#DBDBDB"/>
<path d="M243.961 201.132H152.824V205.225H243.961V201.132Z" fill="#DBDBDB"/>
<path d="M243.961 209.607H152.824V213.7H243.961V209.607Z" fill="#DBDBDB"/>
<path d="M215.268 218.083H152.824V222.176H215.268V218.083Z" fill="#DBDBDB"/>
<path d="M375.917 91.8549H369.65V234.39H375.917V91.8549Z" fill="#DBDBDB"/>
<path d="M372.78 166.451C371.886 166.451 371.161 165.727 371.161 164.833V94.884C371.161 93.9911 371.885 93.2666 372.78 93.2666C373.674 93.2666 374.399 93.9904 374.399 94.884V164.834C374.398 165.727 373.674 166.451 372.78 166.451Z" fill="#A6A6A6"/>
<path d="M231.417 166.269V267.427C231.417 271.93 227.7 275.589 223.11 275.589H63.9993C59.4167 275.589 55.6926 271.93 55.6926 267.427V166.269C55.6926 161.773 59.4167 158.121 63.9993 158.121H223.11C227.7 158.121 231.417 161.773 231.417 166.269Z" fill="#455A64"/>
<path d="M219.353 163.077H68.1018V270.496H219.353V163.077Z" fill="white"/>
<path d="M77.0996 217.507H144.195V170.567H77.0996V217.507Z" fill="#EBEBEB"/>
<path d="M84.9402 183.91C84.9402 186.977 87.4287 189.463 90.4987 189.463C93.5687 189.463 96.0572 186.977 96.0572 183.91C96.0572 180.843 93.5687 178.357 90.4987 178.357C87.4287 178.357 84.9402 180.843 84.9402 183.91Z" fill="#DBDBDB"/>
<path d="M106.883 207.393H144.195L125.539 182.13L106.883 207.393Z" fill="#C7C7C7"/>
<path d="M92.2655 207.416H123.071L107.669 190.965L92.2655 207.416Z" fill="#DBDBDB"/>
<path d="M144.195 207.393H77.0991V217.507H144.195V207.393Z" fill="#DBDBDB"/>
<path d="M165.486 262.107H210.348V230.721H165.486V262.107Z" fill="#EBEBEB"/>
<path d="M170.729 239.643C170.729 241.694 172.392 243.356 174.445 243.356C176.498 243.356 178.162 241.694 178.162 239.643C178.162 237.593 176.498 235.93 174.445 235.93C172.393 235.93 170.729 237.593 170.729 239.643Z" fill="#DBDBDB"/>
<path d="M185.4 255.345H210.349L197.875 238.453L185.4 255.345Z" fill="#C7C7C7"/>
<path d="M175.627 255.36H196.225L185.925 244.36L175.627 255.36Z" fill="#DBDBDB"/>
<path d="M210.349 255.345H165.486V262.107H210.349V255.345Z" fill="#DBDBDB"/>
<path d="M210.355 170.566H149.987V182.032H210.355V170.566Z" fill="#FFC727"/>
<path d="M210.355 186.388H149.987V187.994H210.355V186.388Z" fill="#DBDBDB"/>
<path d="M210.355 190.162H149.987V191.768H210.355V190.162Z" fill="#DBDBDB"/>
<path d="M210.355 193.936H149.987V195.543H210.355V193.936Z" fill="#DBDBDB"/>
<path d="M210.355 197.711H149.987V199.317H210.355V197.711Z" fill="#DBDBDB"/>
<path d="M210.355 201.485H149.987V203.091H210.355V201.485Z" fill="#DBDBDB"/>
<path d="M210.355 205.259H149.987V206.865H210.355V205.259Z" fill="#DBDBDB"/>
<path d="M184.69 209.033H149.987V210.64H184.69V209.033Z" fill="#DBDBDB"/>
<path d="M159.101 253.367H98.7328V254.973H159.101V253.367Z" fill="#DBDBDB"/>
<path d="M159.101 230.721H98.7328V232.327H159.101V230.721Z" fill="#DBDBDB"/>
<path d="M159.101 234.495H98.7328V236.101H159.101V234.495Z" fill="#DBDBDB"/>
<path d="M159.101 238.269H98.7328V239.876H159.101V238.269Z" fill="#DBDBDB"/>
<path d="M139.903 242.044H98.7328V243.65H139.903V242.044Z" fill="#DBDBDB"/>
<path d="M159.101 249.592H98.7328V251.199H159.101V249.592Z" fill="#DBDBDB"/>
<path d="M139.903 257.141H98.7328V258.747H139.903V257.141Z" fill="#DBDBDB"/>
<path d="M210.355 222.749H77.0991V226.542H210.355V222.749Z" fill="#455A64"/>
<path d="M94.3506 230.721H77.0991V262.107H94.3506V230.721Z" fill="#FFC727"/>
<path d="M62.9888 229.638H62.888C62.4107 229.638 62.0247 229.251 62.0247 228.775V204.936C62.0247 204.459 62.4114 204.074 62.888 204.074H62.9888C63.4654 204.074 63.8522 204.46 63.8522 204.936V228.775C63.8529 229.252 63.4661 229.638 62.9888 229.638Z" fill="#37474F"/>
<path d="M229.285 216.856C229.285 218.682 227.804 220.162 225.976 220.162C224.148 220.162 222.666 218.682 222.666 216.856C222.666 215.03 224.148 213.549 225.976 213.549C227.804 213.549 229.285 215.03 229.285 216.856Z" fill="#37474F"/>
<path d="M451.771 136.483H390.241C386.804 136.483 384.016 139.315 384.016 142.817V269.363C384.016 272.857 386.804 275.697 390.241 275.697H451.771C455.211 275.697 458.003 272.857 458.003 269.363V142.817C458.003 139.315 455.211 136.483 451.771 136.483ZM454.112 265.45C454.112 268.781 451.615 271.475 448.536 271.475H393.487C390.401 271.475 387.904 268.781 387.904 265.45V147.613C387.904 140.828 390.401 140.497 393.487 140.497H404.512C405.153 140.497 405.677 141.224 405.677 142.126V142.515C405.677 144.628 406.834 144.635 408.257 144.635H433.757C435.191 144.635 436.338 144.627 436.338 142.515V142.126C436.338 141.224 436.854 140.497 437.506 140.497H448.535C451.614 140.497 454.111 141.399 454.111 147.613L454.112 265.45Z" fill="#455A64"/>
<path d="M424.486 141.996H417.531C417.293 141.996 417.101 141.804 417.101 141.567C417.101 141.329 417.293 141.137 417.531 141.137H424.486C424.724 141.137 424.916 141.329 424.916 141.567C424.916 141.804 424.723 141.996 424.486 141.996Z" fill="white"/>
<path d="M454.112 147.613V265.45C454.112 268.781 451.615 271.475 448.536 271.475H393.487C390.401 271.475 387.904 268.781 387.904 265.45V147.613C387.904 140.828 390.401 140.497 393.487 140.497H404.513C405.153 140.497 405.677 141.224 405.677 142.126V142.515C405.677 144.628 406.835 144.635 408.257 144.635H433.757C435.191 144.635 436.338 144.627 436.338 142.515V142.126C436.338 141.224 436.854 140.497 437.506 140.497H448.535C451.615 140.496 454.112 141.398 454.112 147.613Z" fill="white"/>
<path d="M454.11 147.613V156.406H387.903V147.613C387.903 140.828 390.399 140.497 393.486 140.497H404.515C405.155 140.497 405.679 141.224 405.679 142.126V142.515C405.679 144.628 406.837 144.635 408.256 144.635H433.756C435.19 144.635 436.34 144.627 436.34 142.515V142.126C436.34 141.224 436.857 140.497 437.509 140.497H448.534C451.613 140.496 454.11 141.398 454.11 147.613Z" fill="#FFC727"/>
<path d="M394.177 152.113L392.221 150.282L394.177 148.451L394.481 148.774L392.87 150.282L394.481 151.79L394.177 152.113Z" fill="white"/>
<path d="M448.138 152.275H446.759V151.787C446.759 151.76 446.743 151.734 446.716 151.721C446.665 151.695 446.615 151.666 446.567 151.634C446.542 151.619 446.512 151.617 446.488 151.63L446.064 151.875L445.374 150.682L445.799 150.437C445.822 150.423 445.835 150.397 445.834 150.366C445.832 150.339 445.832 150.31 445.832 150.281C445.832 150.252 445.832 150.223 445.834 150.196C445.836 150.165 445.822 150.138 445.798 150.125L445.374 149.881L446.064 148.687L446.488 148.932C446.513 148.946 446.542 148.945 446.567 148.928C446.614 148.897 446.665 148.868 446.717 148.841C446.743 148.828 446.759 148.803 446.759 148.776V148.287H448.138V148.776C448.138 148.803 448.154 148.828 448.181 148.841C448.232 148.867 448.283 148.896 448.33 148.928C448.356 148.945 448.386 148.945 448.409 148.932L448.833 148.687L449.522 149.88L449.097 150.125C449.074 150.138 449.061 150.165 449.063 150.195C449.064 150.223 449.065 150.252 449.065 150.28C449.065 150.308 449.064 150.337 449.063 150.365C449.06 150.394 449.074 150.422 449.097 150.435L449.522 150.68L448.833 151.873L448.408 151.629C448.384 151.615 448.354 151.617 448.33 151.632C448.282 151.664 448.232 151.693 448.18 151.719C448.154 151.732 448.138 151.757 448.138 151.785V152.275ZM447.102 151.932H447.795V151.788C447.795 151.631 447.883 151.489 448.025 151.416C448.066 151.396 448.105 151.373 448.143 151.348C448.276 151.26 448.444 151.256 448.58 151.334L448.707 151.407L449.052 150.808L448.924 150.734C448.79 150.655 448.711 150.508 448.719 150.349L448.721 150.281L448.719 150.214C448.711 150.054 448.79 149.907 448.925 149.829L449.052 149.756L448.707 149.157L448.581 149.229C448.444 149.308 448.277 149.302 448.144 149.215C448.105 149.19 448.066 149.168 448.025 149.147C447.883 149.074 447.795 148.932 447.795 148.775V148.63H447.102V148.775C447.102 148.932 447.015 149.074 446.874 149.146C446.832 149.167 446.793 149.19 446.755 149.215C446.622 149.302 446.453 149.307 446.317 149.228L446.191 149.156L445.845 149.755L445.972 149.827C446.107 149.905 446.187 150.053 446.178 150.213L446.176 150.281L446.178 150.348C446.187 150.508 446.107 150.656 445.973 150.734L445.845 150.807L446.191 151.405L446.318 151.332C446.452 151.254 446.621 151.259 446.755 151.346C446.794 151.371 446.832 151.394 446.873 151.414C447.015 151.487 447.102 151.629 447.102 151.786V151.932ZM447.448 151.3C446.886 151.3 446.428 150.843 446.428 150.281C446.428 149.719 446.886 149.262 447.448 149.262C448.011 149.262 448.469 149.72 448.469 150.281C448.469 150.844 448.011 151.3 447.448 151.3ZM447.448 149.606C447.075 149.606 446.772 149.909 446.772 150.282C446.772 150.655 447.075 150.958 447.448 150.958C447.821 150.958 448.125 150.655 448.125 150.282C448.125 149.909 447.821 149.606 447.448 149.606Z" fill="white"/>
<path d="M402.61 143.143C402.575 143.178 402.539 143.214 402.504 143.249C402.484 143.269 402.464 143.289 402.443 143.31C402.157 143.032 401.816 142.884 401.418 142.884C401.018 142.884 400.678 143.031 400.389 143.31C400.37 143.29 400.351 143.27 400.332 143.25C400.297 143.215 400.262 143.18 400.227 143.145C400.227 143.145 400.225 143.143 400.223 143.143V143.14C400.226 143.138 400.229 143.136 400.231 143.134C400.276 143.094 400.319 143.053 400.366 143.014C400.461 142.936 400.566 142.871 400.677 142.816C400.808 142.751 400.946 142.704 401.09 142.678C401.159 142.665 401.228 142.659 401.297 142.65C401.32 142.647 401.473 142.646 401.477 142.646C401.524 142.65 401.571 142.652 401.618 142.657C401.748 142.671 401.874 142.702 401.996 142.747C402.085 142.78 402.17 142.82 402.253 142.867C402.339 142.917 402.421 142.974 402.497 143.038C402.536 143.071 402.572 143.106 402.61 143.139C402.61 143.142 402.61 143.143 402.61 143.143Z" fill="white"/>
<path d="M400.727 143.644C400.67 143.588 400.616 143.534 400.558 143.477C400.75 143.289 400.977 143.169 401.243 143.134C401.642 143.08 401.984 143.201 402.274 143.474C402.217 143.532 402.161 143.587 402.105 143.643C401.914 143.458 401.685 143.359 401.416 143.359C401.148 143.359 400.919 143.459 400.727 143.644Z" fill="white"/>
<path d="M401.937 143.812C401.882 143.867 401.826 143.923 401.769 143.979C401.672 143.885 401.554 143.833 401.416 143.833C401.279 143.833 401.161 143.884 401.063 143.98C401.007 143.924 400.951 143.868 400.896 143.813C401.163 143.534 401.642 143.512 401.937 143.812Z" fill="white"/>
<path d="M401.567 144.131C401.567 144.215 401.5 144.282 401.416 144.282C401.333 144.282 401.265 144.215 401.265 144.131C401.265 144.048 401.333 143.98 401.416 143.98C401.5 143.98 401.567 144.048 401.567 144.131Z" fill="white"/>
<path d="M392.221 143.465C392.221 143.223 392.418 143.027 392.659 143.027C392.902 143.027 393.098 143.223 393.098 143.465C393.098 143.707 392.902 143.903 392.659 143.903C392.418 143.904 392.221 143.707 392.221 143.465Z" fill="white"/>
<path d="M393.603 143.465C393.603 143.223 393.799 143.027 394.041 143.027C394.284 143.027 394.48 143.223 394.48 143.465C394.48 143.707 394.284 143.903 394.041 143.903C393.8 143.904 393.603 143.707 393.603 143.465Z" fill="white"/>
<path d="M394.985 143.465C394.985 143.223 395.181 143.027 395.423 143.027C395.666 143.027 395.862 143.223 395.862 143.465C395.862 143.707 395.666 143.903 395.423 143.903C395.182 143.904 394.985 143.707 394.985 143.465Z" fill="white"/>
<path d="M396.367 143.465C396.367 143.223 396.564 143.027 396.806 143.027C397.048 143.027 397.245 143.223 397.245 143.465C397.245 143.707 397.048 143.903 396.806 143.903C396.564 143.904 396.367 143.707 396.367 143.465Z" fill="white"/>
<path d="M397.749 143.465C397.749 143.223 397.945 143.027 398.187 143.027C398.43 143.027 398.626 143.223 398.626 143.465C398.626 143.707 398.43 143.903 398.187 143.903C397.946 143.904 397.749 143.707 397.749 143.465Z" fill="white"/>
<path d="M449.139 144.417H445.578V142.774H449.139V144.417ZM445.749 144.245H448.967V142.945H445.749V144.245Z" fill="white"/>
<path d="M448.172 143.049H445.869V144.141H448.172V143.049Z" fill="white"/>
<path d="M449.465 143.154H449.147V144.037H449.465V143.154Z" fill="white"/>
<path d="M397.964 264.271H397.461V266.581H396.52V265.404H394.854V266.581H393.914V264.271H393.411L395.687 261.921L397.964 264.271Z" fill="#EBEBEB"/>
<path d="M448.609 261.921H443.121V262.704H448.609V261.921Z" fill="#EBEBEB"/>
<path d="M448.609 263.859H443.121V264.643H448.609V263.859Z" fill="#EBEBEB"/>
<path d="M448.609 265.798H443.121V266.581H448.609V265.798Z" fill="#EBEBEB"/>
<path d="M397.857 167.974C397.536 168.173 397.18 168.325 396.792 168.419C395.79 168.664 394.785 168.476 393.973 167.972C393.179 167.482 392.567 166.689 392.327 165.711C391.844 163.73 393.056 161.733 395.039 161.25C397.021 160.766 399.02 161.979 399.504 163.96C399.893 165.554 399.182 167.157 397.857 167.974Z" fill="#DBDBDB"/>
<path d="M397.039 164.412C397.039 165.033 396.535 165.535 395.915 165.535C395.295 165.535 394.791 165.032 394.791 164.412C394.791 163.792 395.295 163.29 395.915 163.29C396.535 163.29 397.039 163.793 397.039 164.412Z" fill="white"/>
<path d="M397.857 167.511V167.974C397.536 168.173 397.18 168.325 396.792 168.419C395.79 168.664 394.785 168.476 393.973 167.972V167.511C393.973 166.442 394.842 165.57 395.915 165.57C396.988 165.57 397.857 166.441 397.857 167.511Z" fill="white"/>
<path d="M427.722 161.356H404.24V163.29H427.722V161.356Z" fill="#EBEBEB"/>
<path d="M424.736 164.581H404.24V165.862H424.736V164.581Z" fill="#EBEBEB"/>
<path d="M438.131 167.048H404.24V168.329H438.131V167.048Z" fill="#EBEBEB"/>
<path d="M387.905 217.894H454.112V171.582H387.905V217.894Z" fill="#EBEBEB"/>
<path d="M395.64 184.747C395.64 187.772 398.095 190.225 401.124 190.225C404.153 190.225 406.608 187.772 406.608 184.747C406.608 181.721 404.153 179.268 401.124 179.268C398.095 179.268 395.64 181.721 395.64 184.747Z" fill="#DBDBDB"/>
<path d="M417.297 207.916H454.11L435.704 182.991L417.297 207.916Z" fill="#C7C7C7"/>
<path d="M402.867 207.938H433.26L418.064 191.708L402.867 207.938Z" fill="#DBDBDB"/>
<path d="M454.111 207.916H387.904V217.894H454.111V207.916Z" fill="#DBDBDB"/>
<path d="M397.857 242.314C397.536 242.514 397.18 242.665 396.792 242.759C395.79 243.004 394.785 242.816 393.973 242.312C393.179 241.822 392.567 241.029 392.327 240.051C391.844 238.07 393.056 236.073 395.039 235.59C397.021 235.106 399.02 236.319 399.504 238.3C399.893 239.894 399.182 241.498 397.857 242.314Z" fill="#DBDBDB"/>
<path d="M395.915 239.876C396.536 239.876 397.039 239.373 397.039 238.753C397.039 238.133 396.536 237.63 395.915 237.63C395.294 237.63 394.791 238.133 394.791 238.753C394.791 239.373 395.294 239.876 395.915 239.876Z" fill="white"/>
<path d="M397.857 241.851V242.313C397.536 242.513 397.18 242.665 396.792 242.759C395.79 243.004 394.785 242.815 393.973 242.311V241.85C393.973 240.781 394.842 239.91 395.915 239.91C396.988 239.91 397.857 240.782 397.857 241.851Z" fill="white"/>
<path d="M434.439 235.696H404.24V237.63H434.439V235.696Z" fill="#EBEBEB"/>
<path d="M442.791 238.921H404.24V240.203H442.791V238.921Z" fill="#EBEBEB"/>
<path d="M417.373 241.388H404.24V242.67H417.373V241.388Z" fill="#EBEBEB"/>
<path d="M454.101 245.923H387.904V257.235H454.101V245.923Z" fill="#EBEBEB"/>
<path d="M406.285 257.235H395.963C396.723 255.123 398.747 253.61 401.124 253.61C403.501 253.61 405.528 255.123 406.285 257.235Z" fill="#DBDBDB"/>
<path d="M392.352 223.321C392.065 222.147 392.785 220.962 393.96 220.675C395.136 220.388 396.322 221.108 396.609 222.282C396.896 223.456 396.176 224.641 395.001 224.928C393.824 225.215 392.638 224.496 392.352 223.321Z" fill="#EBEBEB"/>
<path fill-rule="evenodd" clip-rule="evenodd" d="M394.181 223.672C394.123 223.636 394.073 223.583 393.996 223.591C393.966 223.594 393.972 223.57 393.972 223.553C393.971 223.261 393.972 222.97 393.971 222.678C393.971 222.657 393.973 222.64 393.996 222.628C394.219 222.515 394.315 222.295 394.451 222.105C394.597 221.904 394.648 221.685 394.613 221.444C394.604 221.378 394.634 221.349 394.694 221.335C394.765 221.32 394.836 221.339 394.86 221.388C394.92 221.509 394.972 221.635 394.987 221.77C395.001 221.881 394.96 221.988 394.947 222.098C394.936 222.178 394.918 222.257 394.902 222.338C394.922 222.352 394.945 222.345 394.966 222.345C395.213 222.346 395.459 222.345 395.706 222.345C395.81 222.345 395.86 222.375 395.875 222.444C395.893 222.529 395.847 222.617 395.768 222.657C395.749 222.666 395.716 222.658 395.714 222.687C395.712 222.717 395.746 222.713 395.763 222.725C395.852 222.786 395.836 222.913 395.733 222.985C395.708 223.002 395.659 222.995 395.659 223.031C395.658 223.06 395.703 223.06 395.724 223.08C395.795 223.151 395.76 223.284 395.653 223.337C395.639 223.344 395.621 223.345 395.609 223.354C395.597 223.362 395.585 223.371 395.608 223.388C395.715 223.465 395.713 223.57 395.606 223.648C395.595 223.655 395.584 223.663 395.573 223.67C395.534 223.699 395.488 223.699 395.443 223.699C395.056 223.699 394.67 223.699 394.283 223.699C394.247 223.701 394.21 223.7 394.181 223.672Z" fill="white"/>
<path fill-rule="evenodd" clip-rule="evenodd" d="M393.083 223.158C393.083 222.973 393.083 222.788 393.082 222.602C393.082 222.564 393.085 222.546 393.132 222.546C393.358 222.549 393.584 222.549 393.81 222.546C393.854 222.546 393.861 222.561 393.861 222.6C393.86 222.973 393.86 223.346 393.861 223.719C393.861 223.766 393.849 223.779 393.801 223.779C393.581 223.776 393.362 223.776 393.143 223.779C393.088 223.78 393.081 223.761 393.081 223.713C393.084 223.529 393.083 223.343 393.083 223.158Z" fill="white"/>
<path d="M396.954 223.321C396.666 222.147 397.387 220.962 398.562 220.675C399.738 220.388 400.924 221.108 401.211 222.282C401.498 223.456 400.778 224.641 399.602 224.928C398.427 225.215 397.241 224.496 396.954 223.321Z" fill="#FFC727"/>
<path d="M400.201 223.075C399.87 223.742 399.082 224.138 399.082 224.138C399.082 224.138 398.295 223.741 397.964 223.075C397.689 222.519 397.863 221.917 398.298 221.786C398.922 221.598 399.082 222.683 399.082 222.683C399.082 222.683 399.243 221.598 399.867 221.786C400.302 221.917 400.477 222.519 400.201 223.075Z" fill="white"/>
<path d="M435.704 222.515H404.604V223.78H435.704V222.515Z" fill="#EBEBEB"/>
<path d="M387.904 230.063L396.179 229.937L404.454 229.865L421.003 229.805L437.552 229.865L445.826 229.936L454.101 230.063L445.826 230.188L437.552 230.261L421.003 230.319L404.454 230.259L396.179 230.187L387.904 230.063Z" fill="#EBEBEB"/>
<path d="M288.471 289.832C287.955 288.374 261.216 254.564 259.425 253.94C259.22 253.857 247.759 262.37 247.759 262.37C247.292 263.019 225.084 258.811 225.084 258.811L225.419 285.465L265.68 283.771C265.68 283.771 271.187 286.854 276.218 289.353C276.226 289.354 276.23 289.359 276.235 289.355C279.33 290.904 282.07 292.206 282.847 292.392C284.873 292.865 288.996 291.281 288.471 289.832Z" fill="#EB9481"/>
<path d="M282.848 292.39C282.068 292.207 279.331 290.905 276.236 289.353C276.23 289.359 276.224 289.353 276.217 289.354C271.19 286.854 265.682 283.768 265.682 283.768L256.721 284.147L242.215 261.815C245.307 262.296 247.611 262.575 247.761 262.366C247.761 262.366 259.216 253.854 259.423 253.94C261.215 254.563 287.951 288.371 288.469 289.829C288.995 291.281 284.874 292.868 282.848 292.39Z" fill="white"/>
<path d="M288.71 289.872C288.167 288.378 261.311 254.591 259.472 253.949C258.776 253.702 253.158 257.332 247.76 262.369L265.1 284.131C265.1 284.131 280.844 292.049 282.937 292.537C285.024 293.017 289.252 291.366 288.71 289.872Z" fill="#FFC727"/>
<path d="M286.971 290.46C282.33 284.907 264.136 262.071 259.971 256.229C259.937 256.182 259.968 256.158 260.006 256.201C264.727 261.605 282.735 284.587 287.065 290.386C287.156 290.509 287.069 290.578 286.971 290.46Z" fill="#263238"/>
<path d="M279.993 291.328C278.871 290.028 278.466 288.21 278.684 286.842C278.894 285.528 279.498 284.068 280.705 283.175C280.739 283.15 280.79 283.211 280.759 283.244C278.797 285.327 278.451 288.889 280.064 291.272C280.096 291.32 280.032 291.373 279.993 291.328Z" fill="#263238"/>
<path d="M267.08 285.457C265.246 283.215 263.958 279.952 264.695 277.071C264.723 276.959 264.882 277.001 264.9 277.096C265.472 279.985 266.232 282.558 267.39 285.275C267.472 285.466 267.211 285.617 267.08 285.457Z" fill="#263238"/>
<path d="M269.154 286.665C267.32 284.424 266.033 281.16 266.769 278.279C266.797 278.167 266.956 278.209 266.974 278.305C267.546 281.193 268.307 283.766 269.465 286.483C269.546 286.674 269.285 286.825 269.154 286.665Z" fill="#263238"/>
<path d="M271.228 287.873C269.395 285.632 268.106 282.368 268.843 279.487C268.871 279.375 269.03 279.418 269.049 279.513C269.62 282.401 270.38 284.974 271.539 287.691C271.62 287.882 271.359 288.034 271.228 287.873Z" fill="#263238"/>
<path d="M273.302 289.082C271.468 286.84 270.18 283.576 270.916 280.695C270.944 280.584 271.103 280.626 271.122 280.721C271.693 283.609 272.453 286.182 273.612 288.9C273.694 289.091 273.434 289.242 273.302 289.082Z" fill="#263238"/>
<path d="M255.733 261.944C253.719 259.394 257.681 256.263 259.699 258.816C261.713 261.366 257.751 264.498 255.733 261.944Z" fill="#263238"/>
<path d="M266.155 289.891C266.762 287.415 266.275 284.762 266.11 282.261C266.092 282.002 265.804 281.918 265.603 281.999C265.576 281.96 265.527 281.938 265.482 281.98C263.627 283.658 262.008 286.226 261.316 288.643C260.89 290.135 261.109 292.319 262.973 292.71C264.736 293.081 265.8 291.337 266.155 289.891ZM264.358 291.487C261.71 293.22 261.838 289.49 262.196 288.403C262.426 287.704 262.746 287.021 263.069 286.361C263.746 284.978 264.607 283.718 265.416 282.416C265.422 283.65 265.533 284.871 265.585 286.103C265.646 287.571 265.818 290.531 264.358 291.487Z" fill="#263238"/>
<path d="M257.636 275.077C256.296 276.431 257.318 278.374 258.496 279.384C260.405 281.021 263.172 282.274 265.646 282.654C265.706 282.664 265.735 282.619 265.736 282.572C265.949 282.528 266.144 282.3 266.015 282.073C264.775 279.895 263.719 277.413 261.847 275.68C260.753 274.668 258.903 273.798 257.636 275.077ZM263.458 279.155C264.094 280.212 264.675 281.293 265.35 282.326C263.957 281.684 262.544 281.106 261.216 280.324C260.583 279.952 259.939 279.556 259.363 279.099C258.464 278.389 256.302 275.346 259.468 275.336C261.212 275.33 262.7 277.896 263.458 279.155Z" fill="#263238"/>
<path d="M223.775 252.472L205.616 251.041C205.616 251.041 179.392 243.447 164.235 247.423C146.86 251.98 144.408 272.263 162.074 280.391C179.55 288.432 256.493 285.468 256.493 285.468L240 261.063C240 261.063 214.668 255.118 192.491 256.325L223.89 259.938L223.775 252.472Z" fill="#37474F"/>
<path d="M223.592 257.633C220.89 257.189 218.157 256.968 215.431 256.715C212.683 256.46 209.929 256.262 207.174 256.089C201.682 255.743 196.16 255.629 190.659 255.839C190.143 255.858 189.629 255.89 189.113 255.918C189.004 255.884 188.886 255.867 188.773 255.842C188.508 255.784 188.243 255.724 187.976 255.679C187.477 255.594 186.975 255.532 186.474 255.466C185.429 255.328 184.382 255.24 183.342 255.067C183.279 255.057 183.257 255.152 183.32 255.165C184.367 255.375 185.397 255.655 186.444 255.86C186.746 255.92 187.048 255.978 187.351 256.033C185.335 256.18 183.323 256.378 181.312 256.602C181.25 256.609 181.25 256.708 181.314 256.702C184.052 256.484 186.814 256.407 189.559 256.396C192.286 256.385 195.012 256.388 197.737 256.487C203.249 256.688 208.762 257.067 214.259 257.526C217.342 257.784 220.436 258.101 223.53 258.166C223.829 258.172 223.897 257.683 223.592 257.633Z" fill="#263238"/>
<path d="M248.614 284.907C247.596 283.354 246.722 281.691 245.787 280.087C244.849 278.477 243.91 276.869 242.968 275.26C241.09 272.053 234.366 261.275 233.708 260.525C233.667 260.478 233.585 260.535 233.606 260.591C233.929 261.429 238.136 268.57 239.102 270.162C241.036 273.346 243.063 276.463 245.064 279.605C245.635 280.502 246.225 281.386 246.804 282.279C247.382 283.169 247.996 284.045 248.53 284.962C248.563 285.018 248.65 284.962 248.614 284.907Z" fill="#263238"/>
<path d="M158.283 294.748C158.729 293.267 183.836 258.232 185.595 257.522C185.796 257.43 197.647 265.391 197.647 265.391C198.144 266.017 220.128 260.763 220.128 260.763L221.056 287.402L180.76 287.615C180.76 287.615 175.405 290.954 170.499 293.688C170.49 293.69 170.486 293.694 170.481 293.691C167.462 295.384 164.787 296.815 164.02 297.037C162.02 297.608 157.826 296.222 158.283 294.748Z" fill="#EB9481"/>
<path d="M164.02 297.038C164.792 296.819 167.462 295.388 170.481 293.692C170.488 293.698 170.494 293.692 170.5 293.691C175.403 290.956 180.759 287.614 180.759 287.614L189.727 287.568L203.158 264.576C200.093 265.202 197.805 265.59 197.645 265.389C197.645 265.389 185.8 257.429 185.597 257.524C183.837 258.231 158.732 293.266 158.283 294.747C157.828 296.221 162.019 297.611 164.02 297.038Z" fill="white"/>
<path d="M158.046 294.8C158.518 293.282 183.742 258.263 185.549 257.534C186.233 257.255 192.016 260.614 197.647 265.391L181.357 287.948C181.357 287.948 166.006 296.601 163.939 297.188C161.876 297.767 157.575 296.318 158.046 294.8Z" fill="#FFC727"/>
<path d="M159.81 295.305C164.183 289.539 181.275 265.868 185.159 259.836C185.19 259.787 185.158 259.764 185.122 259.81C180.663 265.431 163.764 289.239 159.714 295.236C159.628 295.363 159.718 295.428 159.81 295.305Z" fill="#263238"/>
<path d="M166.822 295.842C167.882 294.491 168.2 292.655 167.917 291.299C167.645 289.996 166.973 288.566 165.725 287.731C165.689 287.707 165.642 287.771 165.674 287.802C167.732 289.791 168.246 293.332 166.748 295.789C166.718 295.839 166.786 295.889 166.822 295.842Z" fill="#263238"/>
<path d="M179.442 289.367C181.167 287.041 182.299 283.72 181.427 280.877C181.393 280.766 181.237 280.816 181.222 280.912C180.789 283.824 180.151 286.43 179.123 289.199C179.05 289.394 179.318 289.533 179.442 289.367Z" fill="#263238"/>
<path d="M177.427 290.671C179.153 288.345 180.285 285.024 179.413 282.182C179.379 282.071 179.223 282.121 179.209 282.217C178.775 285.129 178.137 287.735 177.109 290.504C177.036 290.699 177.304 290.838 177.427 290.671Z" fill="#263238"/>
<path d="M175.413 291.977C177.139 289.651 178.271 286.33 177.399 283.487C177.365 283.377 177.209 283.426 177.195 283.522C176.761 286.434 176.123 289.04 175.095 291.809C175.022 292.004 175.29 292.143 175.413 291.977Z" fill="#263238"/>
<path d="M173.399 293.282C175.124 290.956 176.256 287.635 175.384 284.792C175.35 284.682 175.194 284.731 175.179 284.827C174.745 287.739 174.107 290.345 173.08 293.114C173.008 293.309 173.276 293.448 173.399 293.282Z" fill="#263238"/>
<path d="M189.662 265.344C191.554 262.702 187.448 259.762 185.553 262.407C183.662 265.049 187.768 267.99 189.662 265.344Z" fill="#263238"/>
<path d="M183.889 296.418C185.733 295.938 185.847 293.746 185.35 292.276C184.545 289.895 182.806 287.406 180.874 285.817C180.826 285.779 180.778 285.801 180.754 285.842C180.548 285.771 180.264 285.868 180.259 286.128C180.212 288.633 179.852 291.306 180.576 293.752C180.999 295.179 182.145 296.871 183.889 296.418ZM180.966 289.941C180.959 288.708 181.013 287.483 180.96 286.251C181.83 287.513 182.75 288.731 183.491 290.08C183.845 290.724 184.197 291.392 184.46 292.079C184.869 293.148 185.173 296.868 182.446 295.262C180.943 294.376 180.975 291.41 180.966 289.941Z" fill="#263238"/>
<path d="M184.207 279.353C182.419 281.172 181.481 283.702 180.346 285.936C180.228 286.168 180.434 286.387 180.648 286.42C180.651 286.468 180.682 286.511 180.742 286.499C183.195 286.002 185.9 284.62 187.729 282.894C188.858 281.829 189.786 279.84 188.383 278.552C187.057 277.334 185.25 278.291 184.207 279.353ZM186.567 278.897C189.729 278.757 187.713 281.899 186.85 282.651C186.295 283.135 185.671 283.56 185.056 283.962C183.768 284.805 182.383 285.45 181.022 286.157C181.647 285.094 182.176 283.986 182.761 282.901C183.459 281.607 184.824 278.973 186.567 278.897Z" fill="#263238"/>
<path d="M221.129 252.562L239.207 252.083C239.207 252.083 257.873 242.5 273.201 245.755C290.773 249.486 293.587 271.336 280.741 279.429C264.467 289.683 190.835 289.734 190.835 289.734L206.027 262.378C206.027 262.378 230.359 256.583 252.568 256.741L221.376 261.835L221.129 252.562Z" fill="#37474F"/>
<path d="M205.014 264.143C205.033 264.109 205.035 264.042 205.044 264.004C205.052 263.966 205.06 263.929 205.069 263.891C205.088 263.804 205.109 263.716 205.131 263.628C205.177 263.446 205.237 263.273 205.301 263.096C205.366 262.92 205.436 262.749 205.511 262.577C205.589 262.401 205.696 262.257 205.797 262.094C205.807 262.077 205.824 262.074 205.838 262.063C205.846 262.055 205.856 262.048 205.866 262.042C205.879 262.036 205.89 262.027 205.905 262.025C205.919 262.019 205.929 262.01 205.945 262.007C208.623 261.436 226.838 258.337 229.549 257.955C232.282 257.57 235.023 257.242 237.767 256.939C243.238 256.334 248.746 255.959 254.252 255.908C254.768 255.903 255.284 255.91 255.799 255.914C255.907 255.875 256.024 255.852 256.136 255.822C256.398 255.751 256.659 255.679 256.925 255.621C257.418 255.512 257.917 255.426 258.415 255.337C259.452 255.15 260.494 255.013 261.524 254.791C261.587 254.778 261.614 254.872 261.551 254.888C260.516 255.146 259.5 255.475 258.464 255.729C258.165 255.803 257.867 255.875 257.566 255.944C259.587 255.996 261.606 256.098 263.625 256.227C263.688 256.231 263.693 256.329 263.627 256.327C260.883 256.238 258.121 256.291 255.377 256.411C252.653 256.529 249.931 256.661 247.212 256.889C241.716 257.35 236.227 257.99 230.759 258.708C227.691 259.111 209.119 262.323 206.032 262.535C206.018 262.536 206.007 262.531 205.994 262.53C205.971 262.602 205.948 262.673 205.915 262.743C205.835 262.913 205.754 263.081 205.667 263.247C205.582 263.408 205.5 263.566 205.404 263.72C205.356 263.797 205.308 263.873 205.258 263.948C205.233 263.986 205.208 264.023 205.184 264.061C205.163 264.093 205.117 264.142 205.107 264.18C205.085 264.251 204.978 264.208 205.014 264.143Z" fill="#263238"/>
<path d="M196.53 287.945C197.473 286.344 198.268 284.643 199.126 282.996C199.987 281.344 200.849 279.692 201.713 278.042C203.436 274.75 209.642 263.666 210.264 262.885C210.303 262.836 210.387 262.889 210.369 262.946C210.086 263.798 206.223 271.131 205.332 272.766C203.551 276.037 201.675 279.247 199.825 282.48C199.297 283.403 198.75 284.314 198.214 285.233C197.679 286.149 197.107 287.054 196.617 287.995C196.586 288.052 196.497 288 196.53 287.945Z" fill="#263238"/>
<path d="M257.351 179.317L253.544 199.902C253.366 200.51 253.696 200.974 254.281 200.936L264.744 200.265C265.328 200.228 265.947 199.703 266.126 199.095L269.932 178.51C270.111 177.901 269.781 177.438 269.197 177.476L258.734 178.147C258.149 178.183 257.53 178.707 257.351 179.317Z" fill="#37474F"/>
<path d="M258.592 179.226L254.785 199.811C254.607 200.419 254.937 200.883 255.522 200.846L265.985 200.174C266.569 200.137 267.188 199.612 267.367 199.004L271.174 178.419C271.352 177.81 271.022 177.347 270.438 177.384L259.975 178.056C259.391 178.093 258.771 178.617 258.592 179.226Z" fill="#455A64"/>
<path d="M261.521 179.968C261.542 180.459 261.16 180.874 260.669 180.895C260.177 180.915 259.762 180.534 259.741 180.043C259.72 179.552 260.102 179.137 260.594 179.116C261.085 179.096 261.5 179.477 261.521 179.968Z" fill="#263238"/>
<path d="M225.596 212.154C232.218 224.431 246.426 240.063 251.933 239.831C254.553 239.72 259.263 240.087 262.533 236.891C269.667 229.918 275.239 217.028 276.119 209.776C276.433 207.197 263.688 202.351 261.967 204.533C257.936 209.641 253.465 219.474 252.701 219.459C249.873 219.401 238.35 210.847 230.305 204.819C220.537 197.501 222.957 207.261 225.596 212.154Z" fill="#EB9481"/>
<path d="M275.696 196.56C274.092 191.447 272.895 190.381 273.836 185.348C274.453 182.045 272.607 180.234 270.44 182.977C266.896 187.463 267.577 194.493 268.516 196.862L275.696 196.56Z" fill="#EB9481"/>
<path d="M275.635 212.035C275.635 212.035 277.552 204.68 276.383 199.063C275.574 195.178 272.872 186.923 261.65 183.108C258.988 182.203 254.553 182.8 258.363 185.855C261.07 188.025 263.442 188.585 264.786 190.134C264.786 190.134 259.235 191.561 258.431 194.261C258.072 195.467 257.17 198.783 256.835 201.464C256.835 201.464 257.4 201.694 258.158 201.883C258.158 201.883 257.485 204.434 259.542 207.886L275.635 212.035Z" fill="#EB9481"/>
<path d="M275.018 195.478C273.359 194.223 269.797 191.621 266.143 190.505C262.084 189.265 253.93 187.97 253.044 190.973C252.395 193.175 255.465 193.943 255.465 193.943C255.465 193.943 251.982 194.118 251.831 196.235C251.693 198.164 254.104 198.616 254.104 198.616C254.104 198.616 252.009 199.084 252.235 200.969C252.506 203.235 256.852 201.88 259.112 203.938C259.621 204.4 275.018 195.478 275.018 195.478Z" fill="#EB9481"/>
<path d="M265.547 195.008C263.793 194.083 259.269 193.004 255.529 193.882C255.444 193.902 255.413 193.976 255.495 193.974C259.818 193.881 263.846 194.628 265.536 195.046C265.558 195.053 265.567 195.019 265.547 195.008Z" fill="#263238"/>
<path d="M264.176 199.066C262.58 198.423 257.867 197.519 254.108 198.539C254.024 198.561 253.998 198.639 254.08 198.633C258.593 198.35 262.455 198.788 264.167 199.105C264.189 199.109 264.196 199.074 264.176 199.066Z" fill="#263238"/>
<path d="M276.53 215.03C276.53 215.03 267.432 235.696 261.64 238.349C255.855 241.002 252.267 240.677 250.046 240.466C249.393 240.404 248.584 240.051 247.654 239.469C241.446 235.538 229.928 221.056 225.123 212.826C221.516 206.637 221.563 200.855 226.6 202.439C227.854 202.828 229.417 203.681 231.316 205.1C240.809 212.201 251.742 218.862 252.227 218.573C252.713 218.29 257.483 209.74 257.483 209.74L276.53 215.03Z" fill="#FFC727"/>
<path d="M253.063 222.9C252.989 223.376 253.022 223.836 253.08 224.293C253.151 224.747 253.248 225.199 253.453 225.634C253.528 225.159 253.495 224.698 253.436 224.242C253.364 223.788 253.267 223.336 253.063 222.9Z" fill="white"/>
<path d="M264.933 228.013C264.859 228.488 264.891 228.948 264.949 229.405C265.021 229.86 265.118 230.311 265.322 230.746C265.398 230.271 265.365 229.811 265.306 229.354C265.234 228.899 265.137 228.448 264.933 228.013Z" fill="white"/>
<path d="M244.004 232.999C243.93 233.475 243.962 233.935 244.02 234.392C244.091 234.846 244.189 235.298 244.393 235.733C244.468 235.258 244.435 234.797 244.376 234.341C244.305 233.886 244.207 233.435 244.004 232.999Z" fill="white"/>
<path d="M238.258 212.696C238.184 213.171 238.216 213.632 238.274 214.088C238.346 214.543 238.443 214.994 238.647 215.43C238.723 214.954 238.689 214.494 238.631 214.037C238.559 213.583 238.462 213.132 238.258 212.696Z" fill="white"/>
<path d="M236.401 221.017C236.877 221.09 237.338 221.058 237.795 221C238.25 220.929 238.702 220.832 239.138 220.627C238.662 220.552 238.201 220.585 237.744 220.644C237.29 220.716 236.838 220.813 236.401 221.017Z" fill="white"/>
<path d="M260.631 223.422C261.106 223.496 261.567 223.463 262.024 223.405C262.48 223.334 262.931 223.237 263.367 223.033C262.891 222.958 262.43 222.991 261.973 223.049C261.519 223.121 261.067 223.218 260.631 223.422Z" fill="white"/>
<path d="M248.323 230.678C248.799 230.752 249.26 230.719 249.717 230.661C250.172 230.59 250.624 230.493 251.059 230.289C250.584 230.214 250.123 230.247 249.666 230.305C249.211 230.377 248.759 230.474 248.323 230.678Z" fill="white"/>
<path d="M271.73 216.292C272.205 216.365 272.666 216.333 273.123 216.275C273.579 216.204 274.03 216.107 274.466 215.902C273.99 215.827 273.529 215.86 273.072 215.919C272.617 215.991 272.165 216.088 271.73 216.292Z" fill="white"/>
<path d="M259.74 237.448C260.215 237.521 260.676 237.489 261.133 237.431C261.589 237.36 262.04 237.263 262.476 237.058C262 236.983 261.54 237.016 261.082 237.075C260.628 237.147 260.176 237.244 259.74 237.448Z" fill="white"/>
<path d="M224.128 203.122C223.741 203.302 223.341 203.398 222.933 203.467C222.996 203.329 223.065 203.212 223.154 203.095C223.472 203.067 223.797 203.067 224.128 203.122Z" fill="white"/>
<path d="M247.158 217.827C246.769 218.11 246.466 218.459 246.184 218.822C245.913 219.194 245.662 219.582 245.498 220.035C245.888 219.751 246.19 219.403 246.472 219.039C246.743 218.667 246.993 218.279 247.158 217.827Z" fill="white"/>
<path d="M258.546 229.379C258.157 229.663 257.854 230.011 257.572 230.375C257.3 230.747 257.05 231.134 256.886 231.587C257.275 231.304 257.578 230.955 257.86 230.592C258.13 230.219 258.381 229.831 258.546 229.379Z" fill="white"/>
<path d="M265.018 214.063C264.629 214.346 264.326 214.695 264.044 215.058C263.772 215.43 263.522 215.817 263.358 216.271C263.748 215.987 264.05 215.639 264.332 215.274C264.603 214.903 264.853 214.515 265.018 214.063Z" fill="white"/>
<path d="M239.968 227.938C239.579 228.222 239.277 228.57 238.994 228.934C238.723 229.306 238.472 229.693 238.308 230.146C238.698 229.862 239 229.514 239.282 229.15C239.553 228.778 239.804 228.39 239.968 227.938Z" fill="white"/>
<path d="M231.393 208.503C231.004 208.786 230.702 209.135 230.419 209.498C230.148 209.87 229.897 210.258 229.734 210.711C230.123 210.428 230.426 210.079 230.707 209.714C230.978 209.343 231.229 208.955 231.393 208.503Z" fill="white"/>
<path d="M230.839 218.003C230.555 217.615 230.206 217.313 229.841 217.03C229.469 216.759 229.081 216.509 228.628 216.345C228.911 216.734 229.261 217.037 229.625 217.318C229.998 217.589 230.386 217.84 230.839 218.003Z" fill="white"/>
<path d="M271.087 222.555C270.803 222.166 270.454 221.864 270.089 221.582C269.717 221.311 269.329 221.06 268.876 220.897C269.159 221.286 269.509 221.588 269.872 221.869C270.245 222.14 270.634 222.39 271.087 222.555Z" fill="white"/>
<path d="M258.704 218.833C258.42 218.444 258.071 218.142 257.707 217.86C257.335 217.589 256.947 217.338 256.494 217.175C256.777 217.564 257.126 217.866 257.49 218.148C257.862 218.418 258.251 218.669 258.704 218.833Z" fill="white"/>
<path d="M245.066 226.464C244.782 226.075 244.433 225.773 244.069 225.491C243.697 225.219 243.309 224.969 242.856 224.805C243.139 225.195 243.488 225.497 243.852 225.778C244.225 226.049 244.613 226.299 245.066 226.464Z" fill="white"/>
<path d="M253.269 237.844C252.986 237.456 252.637 237.154 252.273 236.871C251.901 236.6 251.512 236.35 251.059 236.186C251.342 236.575 251.692 236.878 252.057 237.159C252.429 237.43 252.816 237.68 253.269 237.844Z" fill="white"/>
<path d="M247.654 239.469C241.446 235.538 229.928 221.057 225.123 212.826C221.516 206.638 221.563 200.855 226.6 202.44C229.398 207.301 241.61 228.583 247.654 239.469Z" fill="#263238"/>
<path d="M274.208 218.83C273.512 218.492 266.985 216.357 265.557 215.924C264.128 215.49 258.307 213.663 256.799 213.338C256.732 213.323 256.699 213.412 256.764 213.44C258.185 214.039 264.051 215.899 265.498 216.37C266.944 216.841 273.446 218.811 274.188 218.929C274.251 218.94 274.255 218.853 274.208 218.83Z" fill="#263238"/>
<path d="M241.076 253.111C240.417 253.821 198.172 255.188 197.957 254.923C197.372 254.202 202.575 227.361 206.893 217.082C212.43 203.9 215.6 202.69 217.488 201.89C219.903 200.867 224.317 201.061 225.387 201.494C226.6 201.979 231.902 207.805 233.52 212.542C236.768 222.055 241.65 252.488 241.076 253.111Z" fill="#FFC727"/>
<path d="M222.472 209.445C222.398 209.92 222.43 210.38 222.488 210.837C222.56 211.292 222.657 211.743 222.861 212.178C222.937 211.703 222.904 211.243 222.845 210.786C222.772 210.331 222.676 209.881 222.472 209.445Z" fill="white"/>
<path d="M222.828 229.589C222.754 230.064 222.787 230.524 222.845 230.981C222.916 231.436 223.013 231.887 223.218 232.322C223.292 231.847 223.26 231.387 223.201 230.93C223.129 230.475 223.032 230.024 222.828 229.589Z" fill="white"/>
<path d="M198.809 250.667C198.735 251.142 198.767 251.602 198.826 252.059C198.897 252.514 198.994 252.965 199.198 253.4C199.274 252.925 199.241 252.465 199.182 252.008C199.11 251.553 199.013 251.102 198.809 250.667Z" fill="white"/>
<path d="M216.117 251.495C216.043 251.971 216.076 252.431 216.134 252.888C216.205 253.342 216.302 253.794 216.507 254.229C216.581 253.754 216.549 253.293 216.49 252.837C216.418 252.383 216.321 251.931 216.117 251.495Z" fill="white"/>
<path d="M230.368 242.17C230.294 242.645 230.327 243.106 230.385 243.562C230.456 244.017 230.553 244.468 230.758 244.904C230.832 244.428 230.8 243.968 230.741 243.511C230.669 243.057 230.572 242.606 230.368 242.17Z" fill="white"/>
<path d="M210.048 221.498C209.974 221.974 210.006 222.434 210.063 222.891C210.135 223.345 210.232 223.797 210.436 224.232C210.512 223.757 210.478 223.296 210.42 222.84C210.349 222.386 210.251 221.934 210.048 221.498Z" fill="white"/>
<path d="M208 239.237C207.926 239.712 207.959 240.172 208.017 240.629C208.088 241.084 208.185 241.535 208.39 241.971C208.465 241.495 208.432 241.035 208.373 240.578C208.301 240.123 208.205 239.673 208 239.237Z" fill="white"/>
<path d="M233.383 225.175C233.309 225.651 233.342 226.111 233.4 226.568C233.471 227.022 233.568 227.474 233.773 227.909C233.847 227.434 233.815 226.973 233.756 226.517C233.684 226.062 233.587 225.611 233.383 225.175Z" fill="white"/>
<path d="M218.379 217.961C218.855 218.034 219.316 218.002 219.773 217.944C220.228 217.873 220.68 217.776 221.115 217.571C220.64 217.496 220.179 217.529 219.722 217.588C219.267 217.66 218.816 217.757 218.379 217.961Z" fill="white"/>
<path d="M208.196 231.252C208.672 231.326 209.132 231.293 209.59 231.236C210.045 231.164 210.496 231.067 210.932 230.863C210.456 230.788 209.996 230.821 209.538 230.88C209.083 230.951 208.632 231.049 208.196 231.252Z" fill="white"/>
<path d="M224.321 238.79C224.797 238.863 225.257 238.831 225.715 238.774C226.17 238.703 226.621 238.605 227.057 238.401C226.581 238.326 226.121 238.359 225.663 238.418C225.209 238.489 224.757 238.586 224.321 238.79Z" fill="white"/>
<path d="M212.353 247.332C212.829 247.406 213.289 247.373 213.747 247.316C214.202 247.245 214.654 247.148 215.089 246.943C214.613 246.868 214.153 246.901 213.696 246.96C213.24 247.031 212.789 247.128 212.353 247.332Z" fill="white"/>
<path d="M235.954 247.094C236.43 247.168 236.891 247.135 237.348 247.078C237.803 247.007 238.255 246.91 238.691 246.705C238.215 246.63 237.754 246.663 237.297 246.722C236.842 246.793 236.39 246.89 235.954 247.094Z" fill="white"/>
<path d="M221.39 203.509C221.866 203.582 222.327 203.55 222.784 203.492C223.239 203.421 223.691 203.324 224.127 203.119C223.651 203.044 223.19 203.077 222.733 203.136C222.278 203.208 221.826 203.305 221.39 203.509Z" fill="white"/>
<path d="M217.142 207.063C216.753 207.347 216.451 207.696 216.168 208.059C215.897 208.431 215.646 208.819 215.482 209.271C215.872 208.989 216.174 208.639 216.456 208.276C216.727 207.903 216.978 207.515 217.142 207.063Z" fill="white"/>
<path d="M226.992 222.123C226.603 222.407 226.301 222.755 226.018 223.119C225.747 223.491 225.496 223.878 225.333 224.331C225.722 224.048 226.025 223.699 226.306 223.335C226.578 222.963 226.828 222.575 226.992 222.123Z" fill="white"/>
<path d="M236.784 237.253C236.395 237.537 236.092 237.885 235.81 238.249C235.539 238.621 235.288 239.008 235.124 239.461C235.514 239.177 235.816 238.829 236.098 238.465C236.369 238.093 236.619 237.705 236.784 237.253Z" fill="white"/>
<path d="M225.894 248.753C225.505 249.036 225.203 249.385 224.92 249.748C224.649 250.12 224.398 250.507 224.234 250.961C224.624 250.677 224.927 250.329 225.208 249.965C225.48 249.592 225.73 249.205 225.894 248.753Z" fill="white"/>
<path d="M203.357 245.167C202.968 245.45 202.666 245.799 202.383 246.162C202.112 246.534 201.861 246.921 201.697 247.375C202.087 247.091 202.389 246.743 202.671 246.378C202.942 246.006 203.193 245.619 203.357 245.167Z" fill="white"/>
<path d="M216.313 234.489C215.924 234.772 215.621 235.121 215.339 235.485C215.067 235.857 214.817 236.245 214.653 236.698C215.042 236.415 215.345 236.066 215.627 235.701C215.897 235.329 216.148 234.942 216.313 234.489Z" fill="white"/>
<path d="M231.393 208.503C231.004 208.786 230.702 209.135 230.419 209.498C230.148 209.87 229.897 210.258 229.734 210.711C230.123 210.428 230.426 210.079 230.707 209.714C230.978 209.343 231.229 208.955 231.393 208.503Z" fill="white"/>
<path d="M230.839 218.003C230.555 217.615 230.206 217.313 229.841 217.03C229.469 216.759 229.081 216.509 228.628 216.345C228.911 216.734 229.26 217.037 229.624 217.318C229.998 217.589 230.386 217.84 230.839 218.003Z" fill="white"/>
<path d="M203.097 234.365C202.662 234.207 202.289 233.972 201.937 233.717C201.965 233.593 201.992 233.461 202.02 233.337C202.048 233.358 202.068 233.372 202.096 233.392C202.462 233.675 202.814 233.979 203.097 234.365Z" fill="white"/>
<path d="M232.259 234.042C231.975 233.653 231.626 233.351 231.261 233.069C230.889 232.798 230.501 232.547 230.048 232.384C230.332 232.773 230.68 233.075 231.045 233.357C231.418 233.628 231.806 233.878 232.259 234.042Z" fill="white"/>
<path d="M233.87 253.692C233.586 253.303 233.237 253.001 232.873 252.719C232.5 252.448 232.112 252.197 231.659 252.034C231.942 252.423 232.292 252.725 232.656 253.006C233.029 253.277 233.417 253.527 233.87 253.692Z" fill="white"/>
<path d="M212.353 214.892C212.069 214.504 211.72 214.202 211.356 213.919C210.984 213.648 210.596 213.398 210.143 213.234C210.426 213.623 210.775 213.926 211.139 214.207C211.512 214.478 211.9 214.727 212.353 214.892Z" fill="white"/>
<path d="M220.852 243.538C220.568 243.149 220.22 242.847 219.856 242.565C219.483 242.293 219.095 242.043 218.642 241.879C218.926 242.269 219.275 242.571 219.639 242.852C220.012 243.123 220.4 243.373 220.852 243.538Z" fill="white"/>
<path d="M208.513 252.862C208.229 252.474 207.88 252.172 207.516 251.889C207.144 251.618 206.756 251.368 206.303 251.204C206.586 251.593 206.935 251.896 207.299 252.177C207.672 252.448 208.06 252.698 208.513 252.862Z" fill="white"/>
<path d="M218.326 225.925C218.043 225.537 217.694 225.235 217.33 224.952C216.958 224.681 216.569 224.431 216.116 224.267C216.4 224.656 216.749 224.959 217.113 225.24C217.485 225.511 217.873 225.761 218.326 225.925Z" fill="white"/>
<path d="M210.521 205.51C192.431 219.363 176.855 238.497 178.425 244.493C180.086 250.832 192.748 257.826 203.884 259.17C206.165 259.446 213.053 242.692 210.713 241.946C208.89 241.366 200.601 239.097 199.602 237.973C198.907 237.192 211.564 219.041 215.649 209.588C219.923 199.696 215.365 201.802 210.521 205.51Z" fill="#EB9481"/>
<path d="M206.013 241.484C206.013 241.484 212.972 242.117 217.504 242.745C220.032 243.095 224.313 244.081 226.052 245.187C228.655 246.842 238.479 255.421 236.449 257.845C234.61 260.04 231.772 256.621 231.772 256.621C231.772 256.621 235.226 260.067 232.732 261.684C230.216 263.316 226.953 258.502 226.953 258.502C226.953 258.502 230.874 261.906 228.048 263.379C225.594 264.656 221.233 259.521 221.233 259.521C221.233 259.521 225.741 262.644 223.357 264.2C220.721 265.918 213.213 259.04 213.213 259.04C207.268 259.76 203.601 259.39 199.396 258.255C198.625 258.045 206.013 241.484 206.013 241.484Z" fill="#EB9481"/>
<path d="M228.01 259.654C227.737 259.287 227.455 258.927 227.182 258.56C226.646 257.841 226.116 257.144 225.498 256.492C224.901 255.862 224.277 255.262 223.634 254.678C222.955 254.061 222.209 253.512 221.547 252.879C221.494 252.828 221.423 252.906 221.479 252.955C222.158 253.543 222.749 254.259 223.354 254.92C223.953 255.574 224.544 256.237 225.135 256.9C225.712 257.549 226.329 258.152 226.925 258.783C227.222 259.098 227.504 259.426 227.786 259.753C228.051 260.059 228.298 260.414 228.613 260.67C228.644 260.695 228.684 260.654 228.669 260.621C228.509 260.27 228.238 259.962 228.01 259.654Z" fill="#263238"/>
<path d="M232.477 257.353C232.137 256.659 230.019 254.072 229.438 253.443C228.316 252.227 227.079 251.105 225.737 250.137C225.69 250.104 225.63 250.17 225.669 250.213C226.786 251.437 227.925 252.647 229.06 253.856C229.615 254.448 232.053 257.209 232.345 257.467C232.415 257.527 232.513 257.428 232.477 257.353Z" fill="#263238"/>
<path d="M223.869 261.927C223.512 261.281 221.506 258.874 220.945 258.302C220.418 257.766 217.976 255.82 217.182 255.377C217.132 255.349 217.071 255.414 217.114 255.452C218.288 256.519 219.478 257.561 220.601 258.683C221.148 259.23 223.203 261.533 223.771 262.01C223.822 262.054 223.9 261.983 223.869 261.927Z" fill="#263238"/>
<path d="M211.479 241.254L201.738 259.848C201.738 259.848 179.792 254.056 177.901 244.132C176.01 234.207 201.147 211.377 208.904 205.977C216.662 200.577 221.393 199.857 215.277 212.145C209.161 224.432 199.687 237.079 200.46 237.709C201.113 238.24 211.479 241.254 211.479 241.254Z" fill="#FFC727"/>
<path d="M196.029 227.675C195.955 228.151 195.988 228.611 196.046 229.068C196.117 229.522 196.214 229.974 196.419 230.409C196.493 229.934 196.461 229.473 196.402 229.017C196.33 228.562 196.233 228.111 196.029 227.675Z" fill="white"/>
<path d="M198.809 250.667C198.735 251.142 198.767 251.602 198.826 252.059C198.897 252.514 198.994 252.965 199.198 253.4C199.274 252.925 199.241 252.465 199.182 252.008C199.11 251.553 199.013 251.102 198.809 250.667Z" fill="white"/>
<path d="M187.484 239.474C187.41 239.95 187.443 240.41 187.501 240.867C187.572 241.321 187.669 241.773 187.874 242.208C187.948 241.733 187.916 241.272 187.857 240.816C187.785 240.361 187.688 239.91 187.484 239.474Z" fill="white"/>
<path d="M210.073 221.566C210.059 221.587 210.045 221.614 210.032 221.635C210.032 221.587 210.039 221.545 210.045 221.497C210.059 221.518 210.066 221.545 210.073 221.566Z" fill="white"/>
<path d="M204.812 209.345C204.738 209.82 204.77 210.28 204.827 210.737C204.899 211.192 204.996 211.643 205.2 212.078C205.276 211.603 205.243 211.143 205.184 210.686C205.112 210.231 205.015 209.78 204.812 209.345Z" fill="white"/>
<path d="M208.388 241.969C208.187 241.534 208.091 241.086 208.015 240.631C207.994 240.493 207.98 240.355 207.973 240.217C208.091 240.251 208.208 240.286 208.326 240.32C208.346 240.403 208.36 240.493 208.374 240.575C208.429 241.038 208.464 241.493 208.388 241.969Z" fill="white"/>
<path d="M209.753 205.454C210.229 205.528 210.69 205.495 211.147 205.437C211.602 205.366 212.054 205.269 212.49 205.065C212.014 204.989 211.553 205.022 211.096 205.081C210.641 205.153 210.189 205.25 209.753 205.454Z" fill="white"/>
<path d="M186.914 228.999C187.389 229.073 187.85 229.041 188.307 228.983C188.762 228.912 189.214 228.814 189.65 228.61C189.174 228.535 188.713 228.568 188.256 228.627C187.802 228.698 187.35 228.795 186.914 228.999Z" fill="white"/>
<path d="M196.568 240.798C197.044 240.872 197.504 240.84 197.962 240.782C198.417 240.711 198.868 240.613 199.304 240.409C198.828 240.334 198.368 240.367 197.91 240.426C197.456 240.497 197.004 240.595 196.568 240.798Z" fill="white"/>
<path d="M190.835 254.386C191.311 254.46 191.772 254.428 192.229 254.37C192.684 254.299 193.136 254.202 193.572 253.997C193.096 253.922 192.635 253.955 192.178 254.014C191.723 254.086 191.272 254.182 190.835 254.386Z" fill="white"/>
<path d="M180.36 244.941C180.836 245.015 181.296 244.982 181.754 244.924C182.209 244.853 182.66 244.756 183.096 244.552C182.62 244.477 182.16 244.51 181.703 244.568C181.248 244.64 180.796 244.737 180.36 244.941Z" fill="white"/>
<path d="M200.622 217.051C201.098 217.124 201.558 217.092 202.016 217.034C202.471 216.963 202.923 216.866 203.358 216.661C202.882 216.586 202.422 216.619 201.965 216.678C201.509 216.75 201.058 216.847 200.622 217.051Z" fill="white"/>
<path d="M217.142 207.063C216.753 207.347 216.451 207.696 216.168 208.059C215.897 208.431 215.646 208.819 215.482 209.271C215.872 208.989 216.174 208.639 216.456 208.276C216.727 207.903 216.978 207.515 217.142 207.063Z" fill="white"/>
<path d="M203.357 223.128C202.968 223.412 202.666 223.76 202.383 224.124C202.112 224.496 201.861 224.883 201.697 225.337C202.087 225.053 202.389 224.705 202.671 224.34C202.942 223.968 203.193 223.58 203.357 223.128Z" fill="white"/>
<path d="M203.357 245.167C202.968 245.45 202.666 245.799 202.383 246.162C202.112 246.534 201.861 246.921 201.697 247.375C202.087 247.091 202.389 246.743 202.671 246.378C202.942 246.006 203.193 245.619 203.357 245.167Z" fill="white"/>
<path d="M188.985 248.136C188.596 248.42 188.294 248.768 188.011 249.132C187.74 249.504 187.489 249.891 187.325 250.344C187.715 250.061 188.017 249.712 188.299 249.348C188.57 248.976 188.82 248.588 188.985 248.136Z" fill="white"/>
<path d="M192.495 234.042C192.106 234.325 191.804 234.674 191.521 235.038C191.25 235.41 190.999 235.798 190.835 236.25C191.225 235.967 191.527 235.618 191.809 235.254C192.08 234.882 192.331 234.494 192.495 234.042Z" fill="white"/>
<path d="M202.527 256.763C202.139 257.047 201.836 257.396 201.554 257.76C201.282 258.132 201.031 258.52 200.868 258.972C201.257 258.689 201.56 258.34 201.842 257.976C202.112 257.604 202.363 257.216 202.527 256.763Z" fill="white"/>
<path d="M202.483 233.71V233.717C202.427 233.807 202.372 233.896 202.324 233.979C202.172 233.889 202.027 233.786 201.882 233.682C201.516 233.399 201.17 233.096 200.887 232.709C201.336 232.875 201.723 233.123 202.096 233.393C202.227 233.496 202.358 233.599 202.483 233.71Z" fill="white"/>
<path d="M183.496 237.079C183.212 236.691 182.863 236.388 182.499 236.106C182.127 235.835 181.738 235.585 181.285 235.421C181.569 235.81 181.918 236.112 182.283 236.394C182.655 236.664 183.043 236.915 183.496 237.079Z" fill="white"/>
<path d="M195.474 247.49C195.191 247.101 194.842 246.799 194.478 246.517C194.106 246.246 193.717 245.995 193.264 245.832C193.548 246.221 193.897 246.523 194.262 246.805C194.634 247.076 195.021 247.326 195.474 247.49Z" fill="white"/>
<path d="M212.353 214.892C212.069 214.504 211.72 214.202 211.356 213.919C210.984 213.648 210.596 213.398 210.143 213.234C210.426 213.623 210.775 213.926 211.139 214.207C211.512 214.478 211.9 214.727 212.353 214.892Z" fill="white"/>
<path d="M195.961 222.555C195.677 222.166 195.329 221.864 194.965 221.582C194.592 221.311 194.204 221.06 193.751 220.897C194.035 221.286 194.384 221.588 194.748 221.869C195.121 222.14 195.508 222.39 195.961 222.555Z" fill="white"/>
<path d="M198.626 257.266C199.093 256.65 202.458 250.668 203.161 249.353C203.864 248.037 206.79 242.687 207.402 241.272C207.43 241.21 207.348 241.16 207.308 241.218C206.444 242.494 203.477 247.882 202.733 249.207C201.99 250.533 198.792 256.522 198.531 257.226C198.51 257.286 198.594 257.308 198.626 257.266Z" fill="#263238"/>
<path d="M211.595 241.189C211.595 241.189 211.246 241.771 211.137 241.948C211.123 241.971 211.073 242.029 211.113 241.937C211.174 241.795 211.427 241.286 211.427 241.286C208.457 240.61 205.501 239.858 202.579 238.954C202.213 238.837 201.847 238.719 201.481 238.581C201.115 238.429 200.777 238.333 200.362 238.05C200.335 238.022 200.321 238.022 200.279 237.974C200.238 237.919 200.197 237.864 200.176 237.802C200.155 237.705 200.169 237.546 200.197 237.477C200.231 237.381 200.273 237.27 200.314 237.181C200.39 237.001 200.48 236.822 200.563 236.649C200.735 236.304 200.922 235.966 201.101 235.628C201.833 234.276 202.593 232.951 203.374 231.633C204.955 229.011 206.53 226.389 208.167 223.815C209.713 221.373 211.323 218.612 212.946 216.224C213.042 216.082 213.29 215.948 212.997 216.476C211.506 219.146 210.155 221.449 208.615 224.085L203.96 231.979C203.186 233.297 202.399 234.601 201.66 235.932C201.474 236.264 201.287 236.595 201.114 236.933C201.025 237.098 200.949 237.264 200.866 237.43C200.838 237.499 200.818 237.554 200.797 237.616C200.776 237.602 200.762 237.595 200.748 237.581C200.748 237.581 200.735 237.581 200.735 237.575C200.742 237.588 200.748 237.602 200.748 237.623C200.776 237.63 200.769 237.685 200.776 237.664C200.783 237.65 200.79 237.63 200.797 237.616C201.018 237.761 201.384 237.906 201.695 238.037L202.758 238.43C204.188 238.948 205.645 239.41 207.109 239.858L211.595 241.189Z" fill="#263238"/>
<path d="M200.798 237.615C200.791 237.629 200.784 237.65 200.777 237.664C200.77 237.684 200.777 237.629 200.749 237.622C200.749 237.601 200.742 237.588 200.735 237.574C200.735 237.581 200.749 237.581 200.749 237.581C200.763 237.595 200.777 237.601 200.798 237.615Z" fill="#263238"/>
<path d="M212.536 219.696C212.745 219.537 212.727 219.668 212.631 219.788C212.1 220.455 211.282 221.198 210.691 221.807C209.985 222.517 209.262 223.209 208.465 223.829C209.07 223.02 209.749 222.284 210.445 221.566C211.151 220.856 211.738 220.316 212.536 219.696Z" fill="#263238"/>
<path d="M224.47 208.824C222.099 209.501 217.814 206.032 216.051 203.141C215.931 202.942 216.143 200.784 216.277 198.15C216.353 196.551 216.398 194.769 216.323 193.14C216.306 192.805 226.666 195.149 226.666 195.149C226.666 195.149 225.82 198.61 225.969 201.45C225.984 201.687 226.018 201.906 226.07 202.115C226.075 202.145 226.086 202.182 226.09 202.225C226.356 203.485 226.762 208.167 224.47 208.824Z" fill="#EB9481"/>
<path d="M216.953 193.153C217.556 195.885 219.58 202.461 225.043 202.331C225.424 202.323 225.772 202.288 226.087 202.227C226.088 202.181 226.075 202.148 226.069 202.115C226.019 201.905 225.983 201.688 225.965 201.452C225.817 198.608 226.666 195.146 226.666 195.146C226.666 195.146 219.193 193.455 216.953 193.153Z" fill="#263238"/>
<path d="M229.075 176.841C229.075 176.841 232.402 178.215 233.015 181.587C233.628 184.959 232.864 188.498 232.572 188.672C232.28 188.845 229.075 176.841 229.075 176.841Z" fill="#263238"/>
<path d="M215.074 181.102C214.105 184.768 216.419 195.166 219.088 197.402C222.958 200.644 229.095 200.735 231.802 196.134C234.427 191.674 231.171 178.176 228.208 176.164C223.844 173.201 216.506 175.686 215.074 181.102Z" fill="#EB9481"/>
<path d="M225.733 187.951C225.722 187.926 225.685 187.997 225.692 188.025C225.867 188.721 225.949 189.548 225.364 189.918C225.346 189.93 225.356 189.965 225.379 189.956C226.13 189.679 226.01 188.583 225.733 187.951Z" fill="#263238"/>
<path d="M224.946 187.355C223.799 187.514 224.202 189.795 225.265 189.648C226.311 189.502 225.908 187.221 224.946 187.355Z" fill="#263238"/>
<path d="M229.694 187.274C229.695 187.246 229.756 187.297 229.76 187.326C229.863 188.037 230.1 188.833 230.781 188.954C230.802 188.958 230.806 188.994 230.782 188.995C229.982 189.023 229.678 187.963 229.694 187.274Z" fill="#263238"/>
<path d="M230.195 186.424C231.317 186.137 231.809 188.4 230.77 188.666C229.747 188.928 229.255 186.665 230.195 186.424Z" fill="#263238"/>
<path d="M223.575 185.737C223.891 185.658 224.169 185.533 224.474 185.423C224.817 185.299 225.103 185.235 225.329 184.928C225.449 184.763 225.4 184.467 225.251 184.336C224.904 184.027 224.445 184.075 224.026 184.208C223.571 184.352 223.257 184.579 222.995 184.978C222.742 185.362 223.158 185.84 223.575 185.737Z" fill="#263238"/>
<path d="M230.949 184.574C230.623 184.578 230.322 184.528 230 184.499C229.636 184.466 229.343 184.478 229.046 184.238C228.888 184.11 228.86 183.811 228.97 183.645C229.227 183.258 229.683 183.188 230.122 183.209C230.599 183.233 230.961 183.373 231.315 183.691C231.659 184.001 231.378 184.569 230.949 184.574Z" fill="#263238"/>
<path d="M225.713 194.724C225.911 194.859 226.121 195.057 226.38 195.034C226.63 195.011 226.899 194.85 227.109 194.722C227.13 194.71 227.157 194.729 227.146 194.753C227.01 195.057 226.654 195.295 226.316 195.295C225.986 195.296 225.779 195.047 225.65 194.768C225.632 194.729 225.684 194.705 225.713 194.724Z" fill="#263238"/>
<path d="M226.081 192.478C226.586 193.021 227.227 193.253 227.878 193.264C228.169 193.271 228.466 193.228 228.751 193.151C228.808 193.14 228.863 193.123 228.913 193.103C228.964 193.088 229.009 193.073 229.064 193.052C229.145 193.025 229.178 192.949 229.178 192.869L229.176 192.863C229.171 192.838 229.167 192.817 229.157 192.792C229.157 192.792 229.157 192.792 229.156 192.787L229.144 192.725C229.062 192.178 228.863 191.36 228.863 191.36C229.08 191.425 230.175 191.701 230.109 191.42C229.552 189.092 228.933 186.504 227.887 184.304C227.856 184.23 227.74 184.269 227.761 184.345C228.207 186.604 229.049 188.768 229.533 191.03C229.187 190.964 228.619 190.83 228.335 190.886C228.262 190.922 228.748 192.46 228.765 192.708C228.765 192.708 228.767 192.718 228.765 192.735C227.87 193.013 227.132 192.858 226.135 192.402C226.077 192.371 226.029 192.429 226.081 192.478Z" fill="#263238"/>
<path d="M228.381 192.932C228.381 192.932 228.014 193.668 227.394 194.02C227.166 194.15 226.909 194.231 226.621 194.206C226.03 194.158 225.925 193.642 225.95 193.181C225.969 192.801 226.083 192.458 226.083 192.458C226.083 192.458 227.045 193.084 228.381 192.932Z" fill="#263238"/>
<path d="M227.394 194.02C227.166 194.15 226.91 194.231 226.622 194.206C226.031 194.158 225.925 193.642 225.951 193.181C226.567 193.136 227.239 193.441 227.394 194.02Z" fill="#FF98B9"/>
<path d="M216.444 190.966C217.67 191.129 218.428 187.401 218.582 185.989C218.718 184.746 218.476 180.915 218.49 180.648C218.503 180.381 224.132 183.134 226.93 181.786C229.728 180.438 231.253 177.474 231.089 176.236C230.924 174.999 226.751 172.483 223.565 172.849C220.379 173.216 216.771 177.939 216.771 177.939C216.771 177.939 217.935 175.964 217.862 175.83C217.789 175.696 215.883 176.851 215.75 178.366C215.75 178.366 215.849 176.475 215.69 176.467C215.53 176.459 214.204 178.285 214.759 179.409C214.759 179.409 213.189 181.302 213.31 183.071C213.43 184.841 215.002 190.774 216.444 190.966Z" fill="#263238"/>
<path d="M228.918 180.825C228.092 181.385 227.272 181.986 226.305 182.281C225.26 182.599 224.107 182.516 223.049 182.301C221.968 182.081 220.949 181.67 219.994 181.119C219.158 180.637 218.384 180.016 217.509 179.608C217.29 179.506 217.11 179.826 217.26 179.986C218.751 181.576 221.11 182.716 223.251 183.022C225.504 183.343 227.436 182.531 228.932 180.846C228.941 180.836 228.931 180.816 228.918 180.825Z" fill="#263238"/>
<path d="M217.639 189.55C217.639 189.55 215.074 186.305 213.587 187.238C212.099 188.171 214.165 192.97 216.008 193.537C217.851 194.103 218.409 192.409 218.409 192.409L217.639 189.55Z" fill="#EB9481"/>
<path d="M214.214 188.598C214.185 188.598 214.181 188.638 214.207 188.647C215.501 189.086 216.235 190.219 216.772 191.407C216.369 190.961 215.842 190.735 215.241 191.218C215.209 191.244 215.243 191.294 215.279 191.284C215.79 191.143 216.169 191.211 216.543 191.605C216.808 191.885 216.999 192.246 217.196 192.574C217.262 192.684 217.463 192.611 217.412 192.484C217.409 192.475 217.404 192.464 217.4 192.455C217.339 190.842 215.954 188.66 214.214 188.598Z" fill="#263238"/>
<path d="M214.819 203.909C215.994 205.256 217.117 206.634 218.434 207.838C219.667 208.967 221.142 209.979 222.817 210.133C224.438 210.281 226.059 209.95 226.657 207.967C227.131 206.396 227.052 204.777 226.773 202.765C226.761 202.674 226.88 202.654 226.894 202.747C227.262 205.34 227.652 209.356 225.293 210.253C222.655 211.257 220.066 209.9 218.21 208.081C216.954 206.849 215.734 205.445 214.772 203.95C214.753 203.919 214.796 203.883 214.819 203.909Z" fill="#263238"/>
</svg>
